<svg xmlns="http://www.w3.org/2000/svg" viewBox="0 0 49.06 49.02"><defs><style>.cls-1{fill:#fff;}.cls-2{fill:#085692;}.cls-2,.cls-3,.cls-4,.cls-5{stroke:#231f20;stroke-miterlimit:10;stroke-width:0.5px;}.cls-3{fill:#d6263e;}.cls-4{fill:none;}.cls-5{fill:#ababab;}.cls-6{fill:#4f3e2d;}</style></defs><g id="Layer_6" data-name="Layer 6"><path class="cls-1" d="M3.14,14.46S9.57.26,25,.74,46.89,14.46,46.89,14.46Z" transform="translate(-0.49 -0.49)"/><path class="cls-2" d="M3.14,14.46s-5.2,7.86,0,21.08H46.89s5.41-10.31,0-21.08Z" transform="translate(-0.49 -0.49)"/><path class="cls-3" d="M3.14,35.54S8.33,48.59,25,49.26c16.67-.5,21.89-13.72,21.89-13.72Z" transform="translate(-0.49 -0.49)"/></g><g id="test"><circle class="cls-4" cx="24.51" cy="24.51" r="24.26"/><line class="cls-4" x1="2.65" y1="13.97" x2="46.4" y2="13.97"/><line class="cls-4" x1="2.65" y1="35.05" x2="46.4" y2="35.05"/></g><g id="fej"><circle class="cls-5" cx="24.78" cy="24.51" r="14.9"/></g><g id="orr"><path d="M25.27,10.2v-3s1.7.38,1.7,3.1Z" transform="translate(-0.49 -0.49)"/><path d="M25.32,10.2v-3s-1.79.38-1.79,3.1Z" transform="translate(-0.49 -0.49)"/></g><g id="szem"><path class="cls-1" d="M14.06,15.47a4.34,4.34,0,0,0,4.4,2.29c2.46-.38,3.31-3,3.39-3.19a5.12,5.12,0,0,0-.34-3.71A11.75,11.75,0,0,0,14.06,15.47Z" transform="translate(-0.49 -0.49)"/><path d="M15.9,13.5a1.84,1.84,0,0,0,1.62,1.8,1.82,1.82,0,0,0,1.59-1.19,2.15,2.15,0,0,0-.54-2.32A6.21,6.21,0,0,0,15.9,13.5Z" transform="translate(-0.49 -0.49)"/><path class="cls-1" d="M29.15,10.87a4.7,4.7,0,0,0,.61,5.83,4.44,4.44,0,0,0,4.24.91,4.59,4.59,0,0,0,2.51-2A11.68,11.68,0,0,0,29.15,10.87Z" transform="translate(-0.49 -0.49)"/><path d="M34.47,13.41a1.84,1.84,0,0,1-1.62,1.8A1.82,1.82,0,0,1,31.26,14a2.16,2.16,0,0,1,.54-2.33,6.59,6.59,0,0,1,1.49.72A6,6,0,0,1,34.47,13.41Z" transform="translate(-0.49 -0.49)"/></g><g id="haj"><path d="M25.57,22.11c-4-.31-5.55,2.75-8.54,2.09-1.39-.3-3.34-1.47-5.11-5.79a14.9,14.9,0,1,0,26.93.47c-2.5,4.41-4.76,5.52-6.44,5.64C29.75,24.71,29,22.37,25.57,22.11Z" transform="translate(-0.49 -0.49)"/><path class="cls-6" d="M1.43,9.55" transform="translate(-0.49 -0.49)"/></g></svg>