<?xml version="1.0" encoding="utf-8"?>
<!-- Generator: Adobe Illustrator 25.3.1, SVG Export Plug-In . SVG Version: 6.00 Build 0)  -->
<svg version="1.1" id="Layer_1" xmlns="http://www.w3.org/2000/svg" xmlns:xlink="http://www.w3.org/1999/xlink" x="0px" y="0px"
	 viewBox="0 0 49.1 49" style="enable-background:new 0 0 49.1 49;" xml:space="preserve">
<style type="text/css">
	.st0{fill:#FFFFFF;}
	.st1{fill:#085692;stroke:#231F20;stroke-width:0.5;stroke-miterlimit:10;}
	.st2{fill:#D6263E;stroke:#231F20;stroke-width:0.5;stroke-miterlimit:10;}
	.st3{fill:none;stroke:#231F20;stroke-width:0.5;stroke-miterlimit:10;}
	.st4{fill:#ABABAB;stroke:#231F20;stroke-width:0.5;stroke-miterlimit:10;}
	.st5{fill:#4F3E2D;}
</style>
<g id="Layer_6">
	<path class="st0" d="M35.1,2.6c0,0,14.2,6.4,13.7,21.9S35.1,46.4,35.1,46.4V2.6z"/>
	<path class="st1" d="M35.1,2.6c0,0-7.9-5.2-21.1,0v43.8c0,0,10.3,5.4,21.1,0V2.6z"/>
	<path class="st2" d="M14,2.6c0,0-13,5.2-13.7,21.9C0.8,41.2,14,46.4,14,46.4L14,2.6z"/>
</g>
<g id="test">
	<circle class="st3" cx="24.5" cy="24.5" r="24.3"/>
	<line class="st3" x1="35.1" y1="2.6" x2="35.1" y2="46.4"/>
	<line class="st3" x1="14" y1="2.6" x2="14" y2="46.4"/>
</g>
<g id="fej">
	<circle class="st4" cx="24.5" cy="24.8" r="14.9"/>
</g>
<g id="orr">
	<path d="M39.3,24.8h3c0,0-0.4,1.7-3.1,1.7L39.3,24.8z"/>
	<path d="M39.3,24.8h3c0,0-0.4-1.8-3.1-1.8L39.3,24.8z"/>
</g>
<g id="szem">
	<path class="st0" d="M34.1,13.5c-1.6,0.8-2.5,2.6-2.3,4.4c0.4,2.5,3,3.3,3.2,3.4c1.2,0.4,2.6,0.2,3.7-0.3
		C38.1,18,36.5,15.3,34.1,13.5z"/>
	<path d="M36,15.4c-0.9,0-1.7,0.7-1.8,1.6c0,0.7,0.5,1.3,1.2,1.6c0.8,0.3,1.7,0.1,2.3-0.5C37.4,17,36.8,16.1,36,15.4z"/>
	<path class="st0" d="M38.7,28.6c-1.8-1.2-4.3-0.9-5.8,0.6c-1,1.2-1.4,2.8-0.9,4.2c0.3,1.1,1.1,1.9,2,2.5
		C36.4,34.3,38.1,31.6,38.7,28.6z"/>
	<path d="M36.1,34c-0.9,0-1.7-0.7-1.8-1.6c0.1-0.7,0.5-1.3,1.2-1.6c0.8-0.3,1.7-0.1,2.3,0.5c-0.2,0.5-0.4,1-0.7,1.5
		C36.8,33.2,36.5,33.6,36.1,34z"/>
</g>
<g id="haj">
	<path d="M27.4,25.1c0.3-4-2.8-5.5-2.1-8.5c0.3-1.4,1.5-3.3,5.8-5.1c-7.4-3.7-16.3-0.6-20,6.7c-3.7,7.4-0.6,16.3,6.7,20
		c4,2,8.7,2.1,12.7,0.2c-4.4-2.5-5.5-4.8-5.6-6.4C24.8,29.2,27.2,28.5,27.4,25.1z"/>
	<path class="st5" d="M40,0.9"/>
</g>
</svg>
