<svg xmlns="http://www.w3.org/2000/svg" viewBox="0 0 48.52 49.26"><defs><style>.cls-1{fill:#f3b167;}.cls-2{fill:none;}.cls-3{fill:#4061ad;}.cls-4{fill:#231f20;}.cls-5{fill:#fff;}.cls-6{fill:#4f3e2d;}</style></defs><g id="test"><circle class="cls-1" cx="24.26" cy="25" r="24.26"/></g><g id="ruha"><path class="cls-2" d="M25.5,25" transform="translate(-0.74)"/><path class="cls-2" d="M3.13,14.48" transform="translate(-0.74)"/><path class="cls-3" d="M46.87,14.48a24.27,24.27,0,0,0-43.74,0A14.31,14.31,0,0,1,8,25,14.31,14.31,0,0,1,3.13,35.52a24.27,24.27,0,0,0,43.74,0,15.57,15.57,0,0,1,0-21Z" transform="translate(-0.74)"/></g><g id="kar"><path class="cls-1" d="M46.87,35.52a33.33,33.33,0,0,1-3.08-4.29,42,42,0,0,1-3.45-7.57c-2.47-6.65-1.54-6.11-2.69-8.08-1.76-3-4.41-5.09-8.76-8.46-2.2-1.7-4.67-3.38-4.3-4.94a1.82,1.82,0,0,1,.72-1c.89-.66,2.55-.84,9,2.33C38.76,5.72,41,6.81,43,8.84a20.28,20.28,0,0,1,3.89,5.64Z" transform="translate(-0.74)"/><path class="cls-1" d="M55.63,6.91" transform="translate(-0.74)"/><path class="cls-1" d="M2.91,35.52A33.33,33.33,0,0,0,6,31.23a42,42,0,0,0,3.45-7.57C11.91,17,11,17.55,12.13,15.58c1.76-3,4.41-5.09,8.76-8.46,2.2-1.7,4.67-3.38,4.3-4.94a1.82,1.82,0,0,0-.72-1c-.89-.66-2.55-.84-9,2.33C11,5.72,8.79,6.81,6.8,8.84a20.28,20.28,0,0,0-3.89,5.64Z" transform="translate(-0.74)"/></g><g id="Layer_8" data-name="Layer 8"><rect class="cls-4" x="21.83" width="4.96" height="8.15"/></g><g id="fej"><circle class="cls-1" cx="24.26" cy="33.48" r="14.9"/></g><g id="orr"><path class="cls-1" d="M25.05,18.67v-3s1.69.37,1.69,3.1Z" transform="translate(-0.74)"/><path class="cls-1" d="M25.05,18.67v-3s-1.79.37-1.79,3.1Z" transform="translate(-0.74)"/></g><g id="szem"><path class="cls-5" d="M13.79,23.66A4.35,4.35,0,0,0,18.18,26c2.47-.39,3.32-3,3.4-3.2a5.12,5.12,0,0,0-.34-3.71A11.75,11.75,0,0,0,13.79,23.66Z" transform="translate(-0.74)"/><path d="M15.63,21.69a1.84,1.84,0,0,0,1.62,1.8,1.79,1.79,0,0,0,1.59-1.19A2.17,2.17,0,0,0,18.3,20a6.21,6.21,0,0,0-2.67,1.71Z" transform="translate(-0.74)"/><path class="cls-5" d="M29.05,19.15A4.7,4.7,0,0,0,29.66,25a4.41,4.41,0,0,0,4.24.91,4.59,4.59,0,0,0,2.51-2A11.74,11.74,0,0,0,29.05,19.15Z" transform="translate(-0.74)"/><path d="M34.37,21.69a1.84,1.84,0,0,1-1.62,1.8,1.79,1.79,0,0,1-1.59-1.19A2.15,2.15,0,0,1,31.7,20a6.21,6.21,0,0,1,2.67,1.71Z" transform="translate(-0.74)"/></g><g id="haj"><path class="cls-6" d="M25.29,30.59c-4-.31-5.55,2.75-8.53,2.09-1.39-.31-3.34-1.47-5.11-5.8a14.9,14.9,0,1,0,26.93.48c-2.5,4.41-4.76,5.52-6.44,5.64C29.48,33.19,28.7,30.85,25.29,30.59Z" transform="translate(-0.74)"/><path class="cls-6" d="M1.43,9.55" transform="translate(-0.74)"/></g></svg>