<svg xmlns="http://www.w3.org/2000/svg" viewBox="0 0 49.51 48.96"><defs><style>.cls-1{fill:#f3b167;}.cls-2,.cls-7{fill:none;}.cls-3{fill:#4061ad;}.cls-4{fill:#231f20;}.cls-5{fill:#fff;}.cls-6{fill:#4f3e2d;}.cls-7{stroke:#231f20;stroke-miterlimit:10;stroke-width:0.5px;}</style></defs><g id="Layer_9" data-name="Layer 9"><circle class="cls-1" cx="24.51" cy="24.48" r="24.26"/><path class="cls-2" d="M25,25.49" transform="translate(-0.49 -0.51)"/><path class="cls-2" d="M35.52,3.12" transform="translate(-0.49 -0.51)"/><path class="cls-3" d="M35.52,46.86a24.27,24.27,0,0,0,0-43.74A14.29,14.29,0,0,1,25,7.94,14.26,14.26,0,0,1,14.49,3.12a24.27,24.27,0,0,0,0,43.74,15.56,15.56,0,0,1,21,0Z" transform="translate(-0.49 -0.51)"/><path class="cls-1" d="M14.49,46.86a32.4,32.4,0,0,1,4.28-3.08,42.58,42.58,0,0,1,7.57-3.46c6.65-2.47,6.11-1.54,8.08-2.68,3-1.76,5.09-4.41,8.46-8.76,1.7-2.21,3.39-4.67,4.94-4.31a1.87,1.87,0,0,1,1,.72c.66.9.84,2.55-2.33,9C44.29,38.75,43.19,41,41.16,43a20.28,20.28,0,0,1-5.64,3.89Z" transform="translate(-0.49 -0.51)"/><path class="cls-1" d="M43.09,55.62" transform="translate(-0.49 -0.51)"/><path class="cls-1" d="M14.49,2.9A32.5,32.5,0,0,0,18.77,6a41.15,41.15,0,0,0,7.57,3.46C33,11.9,32.45,11,34.42,12.12c3,1.76,5.09,4.41,8.46,8.76,1.7,2.2,3.39,4.67,4.94,4.3a1.82,1.82,0,0,0,1-.72c.66-.89.84-2.55-2.33-9-2.19-4.46-3.29-6.7-5.32-8.68A20.28,20.28,0,0,0,35.52,2.9Z" transform="translate(-0.49 -0.51)"/><rect class="cls-4" x="43.45" y="20.96" width="4.96" height="8.15" transform="translate(70.47 -21.39) rotate(90)"/><circle class="cls-1" cx="16.03" cy="24.48" r="14.9"/><path class="cls-1" d="M31.33,25h3s-.37,1.69-3.1,1.69Z" transform="translate(-0.49 -0.51)"/><path class="cls-1" d="M31.33,25h3s-.37-1.8-3.1-1.8Z" transform="translate(-0.49 -0.51)"/><path class="cls-5" d="M26.34,13.78A4.35,4.35,0,0,0,24,18.17c.39,2.46,3,3.32,3.2,3.39A5.09,5.09,0,0,0,31,21.23,11.72,11.72,0,0,0,26.34,13.78Z" transform="translate(-0.49 -0.51)"/><path d="M28.31,15.61a1.85,1.85,0,0,0-1.8,1.63,1.79,1.79,0,0,0,1.19,1.58A2.15,2.15,0,0,0,30,18.29a6.13,6.13,0,0,0-.71-1.5A6.71,6.71,0,0,0,28.31,15.61Z" transform="translate(-0.49 -0.51)"/><path class="cls-5" d="M30.85,29a4.7,4.7,0,0,0-5.83.61,4.41,4.41,0,0,0-.91,4.24,4.59,4.59,0,0,0,2,2.51A11.71,11.71,0,0,0,30.85,29Z" transform="translate(-0.49 -0.51)"/><path d="M28.31,34.36a1.84,1.84,0,0,1-1.8-1.63,1.79,1.79,0,0,1,1.19-1.58,2.15,2.15,0,0,1,2.32.53,6.13,6.13,0,0,1-.71,1.5A6.36,6.36,0,0,1,28.31,34.36Z" transform="translate(-0.49 -0.51)"/><path class="cls-6" d="M19.41,25.28c.31-4-2.74-5.55-2.09-8.53.31-1.39,1.47-3.34,5.8-5.11a14.9,14.9,0,1,0-6.6,28.25,14.72,14.72,0,0,0,6.12-1.33c-4.41-2.5-5.52-4.75-5.64-6.43C16.81,29.46,19.15,28.69,19.41,25.28Z" transform="translate(-0.49 -0.51)"/><path class="cls-6" d="M40.45,1.42" transform="translate(-0.49 -0.51)"/><circle class="cls-7" cx="24.48" cy="24.48" r="24.23"/></g></svg>