<?xml version="1.0" encoding="utf-8"?>
<!-- Generator: Adobe Illustrator 25.3.1, SVG Export Plug-In . SVG Version: 6.00 Build 0)  -->
<svg version="1.1" id="Layer_1" xmlns="http://www.w3.org/2000/svg" xmlns:xlink="http://www.w3.org/1999/xlink" x="0px" y="0px"
	 viewBox="0 0 49 49.5" style="enable-background:new 0 0 49 49.5;" xml:space="preserve">
<style type="text/css">
	.st0{fill:#F3B167;}
	.st1{fill:none;}
	.st2{fill:#4061AD;}
	.st3{fill:#FCEE2E;}
	.st4{fill:#231F20;}
	.st5{fill:#FFFFFF;}
	.st6{fill:#4F3E2D;}
	.st7{fill:none;stroke:#231F20;stroke-width:0.5;stroke-miterlimit:10;}
</style>
<g>
	<g id="test">
		<circle class="st0" cx="24.6" cy="24.8" r="24.3"/>
	</g>
	<g id="ruha">
		<path class="st1" d="M24.6,25.3"/>
		<path class="st1" d="M35.2,2.9"/>
		<path class="st2" d="M35.2,46.7c12.1-5.8,17.2-20.3,11.3-32.4c-2.4-5-6.4-9-11.3-11.3c-2.7,3-6.5,4.8-10.5,4.9
			c-4-0.1-7.9-1.8-10.5-4.9C2,8.8-3,23.3,2.8,35.3c2.4,5,6.4,9,11.3,11.3C20.1,41.3,29.2,41.3,35.2,46.7L35.2,46.7z"/>
	</g>
	<g id="kar">
		<path class="st0" d="M14.1,46.7c1.3-1.1,2.8-2.2,4.3-3.1c2.4-1.4,4.9-2.6,7.6-3.5c6.6-2.5,6.1-1.5,8.1-2.7c3-1.8,5.1-4.4,8.5-8.8
			c1.7-2.2,3.4-4.7,4.9-4.3c0.4,0.1,0.8,0.4,1,0.7c0.7,0.9,0.8,2.5-2.3,9c-2.2,4.5-3.3,6.7-5.3,8.7c-1.6,1.6-3.6,2.9-5.6,3.9
			c-4,1.9-8.4,2.7-12.8,2.3C19.5,48.7,16.7,47.9,14.1,46.7z"/>
		<path class="st0" d="M42.7,55.4"/>
		<path class="st0" d="M14.1,2.7c1.3,1.1,2.8,2.2,4.3,3.1c2.4,1.4,4.9,2.6,7.6,3.4c6.7,2.5,6.1,1.6,8.1,2.7c3,1.8,5.1,4.4,8.5,8.8
			c1.7,2.2,3.4,4.7,4.9,4.3c0.4-0.1,0.8-0.4,1-0.7c0.7-0.9,0.8-2.5-2.3-9c-2.2-4.5-3.3-6.7-5.3-8.7c-1.6-1.6-3.6-2.9-5.6-3.9
			c-4.6-1.9-9.6-2.5-14.5-1.8C18.4,1.2,16.2,1.9,14.1,2.7z"/>
	</g>
	<g id="Layer_10">
		<path class="st3" d="M24.7,0.6v48.5c0,0-24.2-1.6-24.2-23.7S21.5,0.4,24.7,0.6L24.7,0.6"/>
		<path class="st3" d="M27.8,39.6c1.5,1.1,7.2,5.1,6.4,7.3c-0.3,0.8-1.4,1.1-3.7,1.6c-2.6,0.7-5.2,0.9-7.8,0.6
			c-1.8-0.1-3.5-0.5-5.2-1c-2.2-0.7-4.3-1.8-6.3-3.1c3.5-3.4,8.1-5.4,13-5.7C25.4,39.3,26.6,39.4,27.8,39.6z"/>
		<path class="st3" d="M27.5,9.9c3.4-2.4,7.1-5.5,6.5-7.1c-0.2-0.5-0.8-0.7-1.8-1c-2.7-0.8-5.6-1.2-8.4-1.1c-3.4,0.3-6.8,1-10,2.3
			c0.6,0.9,4,6.6,10,7.2C25,10.3,26.3,10.2,27.5,9.9z"/>
	</g>
	<g id="Layer_8">
		<rect x="41.5" y="22.4" class="st4" width="8.1" height="5"/>
	</g>
	<g id="fej">
		<circle class="st0" cx="19.2" cy="24.8" r="14.9"/>
	</g>
	<g id="orr">
		<path class="st0" d="M34,24.9h3c0,0-0.4,1.7-3.1,1.7L34,24.9z"/>
		<path class="st0" d="M34,24.9h3c0,0-0.4-1.8-3.1-1.8L34,24.9z"/>
	</g>
	<g id="szem">
		<path class="st5" d="M29,13.6c-1.6,0.8-2.6,2.6-2.3,4.4c0.4,2.5,3,3.3,3.2,3.4c1.2,0.4,2.6,0.2,3.7-0.3C33,18.1,31.4,15.4,29,13.6
			z"/>
		<path d="M30.9,15.4c-0.9,0-1.7,0.7-1.8,1.6c0,0.7,0.5,1.3,1.2,1.6c0.8,0.3,1.7,0.1,2.3-0.5C32.3,17.1,31.7,16.2,30.9,15.4
			L30.9,15.4z"/>
		<path class="st5" d="M33.5,28.9c-1.9-1.2-4.3-0.9-5.8,0.6c-1,1.2-1.4,2.8-0.9,4.2c0.3,1.1,1.1,1.9,2,2.5
			C31.2,34.5,32.9,31.8,33.5,28.9z"/>
		<path d="M30.9,34.2c-0.9,0-1.7-0.7-1.8-1.6c0-0.7,0.5-1.3,1.2-1.6c0.8-0.3,1.7-0.1,2.3,0.5C32.3,32.5,31.7,33.5,30.9,34.2
			L30.9,34.2z"/>
	</g>
	<g id="haj">
		<path class="st6" d="M22,25.1c0.3-4-2.8-5.5-2.1-8.5c0.3-1.4,1.5-3.3,5.8-5.1c-7.4-3.7-16.3-0.6-20,6.7c-3.7,7.4-0.6,16.3,6.7,20
			c4,2,8.7,2.1,12.7,0.2c-4.4-2.5-5.5-4.8-5.6-6.4C19.4,29.3,21.8,28.5,22,25.1z"/>
		<path class="st6" d="M40.1,1.2"/>
	</g>
	<g id="Layer_9">
		<circle class="st7" cx="24.6" cy="24.8" r="24.2"/>
	</g>
</g>
</svg>
