<svg xmlns="http://www.w3.org/2000/svg" viewBox="0 0 48.52 48.52"><defs><style>.cls-1{fill:#f3b167;}.cls-2{fill:none;}.cls-3{fill:#4061ad;}.cls-4{fill:#fff;}.cls-5{fill:#4f3e2d;}</style></defs><g id="test"><circle class="cls-1" cx="24.26" cy="24.26" r="24.26"/></g><g id="ruha"><path class="cls-2" d="M25.5,25" transform="translate(-0.74 -0.74)"/><path class="cls-2" d="M3.13,14.48" transform="translate(-0.74 -0.74)"/><path class="cls-3" d="M46.87,14.48a24.27,24.27,0,0,0-43.74,0A14.31,14.31,0,0,1,8,25,14.31,14.31,0,0,1,3.13,35.52a24.27,24.27,0,0,0,43.74,0,15.57,15.57,0,0,1,0-21Z" transform="translate(-0.74 -0.74)"/></g><g id="fej"><circle class="cls-1" cx="24.53" cy="24.26" r="14.9"/></g><g id="orr"><path class="cls-1" d="M25.32,10.2v-3s1.7.38,1.7,3.1Z" transform="translate(-0.74 -0.74)"/><path class="cls-1" d="M25.32,10.2v-3s-1.79.38-1.79,3.1Z" transform="translate(-0.74 -0.74)"/></g><g id="szem"><path class="cls-4" d="M14.06,15.19a4.35,4.35,0,0,0,4.4,2.29c2.46-.38,3.31-3,3.39-3.2a5.08,5.08,0,0,0-.34-3.7A11.71,11.71,0,0,0,14.06,15.19Z" transform="translate(-0.74 -0.74)"/><path d="M15.9,13.21A1.84,1.84,0,0,0,17.52,15a1.79,1.79,0,0,0,1.59-1.18,2.16,2.16,0,0,0-.54-2.33,6.49,6.49,0,0,0-1.49.71A6,6,0,0,0,15.9,13.21Z" transform="translate(-0.74 -0.74)"/><path class="cls-4" d="M29.32,10.67a4.71,4.71,0,0,0,.61,5.83,4.39,4.39,0,0,0,4.24.91,4.59,4.59,0,0,0,2.51-2A11.73,11.73,0,0,0,29.32,10.67Z" transform="translate(-0.74 -0.74)"/><path d="M34.64,13.21A1.84,1.84,0,0,1,33,15a1.79,1.79,0,0,1-1.59-1.18A2.16,2.16,0,0,1,32,11.5a6.49,6.49,0,0,1,1.49.71A6,6,0,0,1,34.64,13.21Z" transform="translate(-0.74 -0.74)"/></g><g id="haj"><path class="cls-5" d="M25.57,22.11c-4-.31-5.55,2.75-8.54,2.09-1.39-.3-3.34-1.47-5.11-5.79a14.9,14.9,0,1,0,26.93.47c-2.5,4.41-4.76,5.52-6.44,5.64C29.75,24.71,29,22.37,25.57,22.11Z" transform="translate(-0.74 -0.74)"/><path class="cls-5" d="M1.43,9.55" transform="translate(-0.74 -0.74)"/></g></svg>