<svg xmlns="http://www.w3.org/2000/svg" viewBox="0 0 36.07 48.35"><defs><style>.cls-1,.cls-2{fill:#d85352;}.cls-2,.cls-3,.cls-4{stroke:#231f20;stroke-miterlimit:10;}.cls-3{fill:none;}.cls-4{fill:#9b5e33;}.cls-5{fill:#231f20;}</style></defs><g id="Layer_2" data-name="Layer 2"><path class="cls-1" d="M9.71,22.54a6.44,6.44,0,0,1,2.17-3c3.67-2.69,7.55,1.71,15.05.77,4.94-.61,8.17-3.12,10.8-1.2a4.63,4.63,0,0,1,1.32,1.56s6.05,10.29,1.66,18.68-14.08,9.29-14.83,9.33c-1.58.09-7.5.23-12.25-3.91C8,39.82,6.31,30.86,9.71,22.54Z" transform="translate(-6.96 -0.83)"/></g><g id="test"><path class="cls-2" d="M29.83,6.83A11.33,11.33,0,0,0,29.29,11,10.88,10.88,0,0,0,30,14.13" transform="translate(-6.96 -0.83)"/><circle class="cls-3" cx="18.04" cy="30.31" r="17.54"/><path class="cls-2" d="M21,8.22a7.79,7.79,0,0,1,.61,3.36,7.55,7.55,0,0,1-.57,2.57" transform="translate(-6.96 -0.83)"/><path class="cls-4" d="M20.76,9h9.15l2-7.6-13.9,0Z" transform="translate(-6.96 -0.83)"/><path class="cls-5" d="M18.22,36.44V26h1.52v10.4Zm.3-4.48V30.57h6.16V32Zm4.91,4.48V26H25v10.4Z" transform="translate(-6.96 -0.83)"/><path class="cls-5" d="M27.15,36.44V26h1.53v10.4Zm1.35-3.22V31.83h1.71a2.51,2.51,0,0,0,1.82-.6,2.33,2.33,0,0,0,.62-1.75A1.9,1.9,0,0,0,32,28a2.8,2.8,0,0,0-1.82-.52H28.53V26h1.68a4.44,4.44,0,0,1,3,.87,3.22,3.22,0,0,1,1,2.57,3.65,3.65,0,0,1-1,2.79,4.2,4.2,0,0,1-3,.95Z" transform="translate(-6.96 -0.83)"/></g></svg>