<?xml version="1.0" encoding="utf-8"?>
<!-- Generator: Adobe Illustrator 25.3.1, SVG Export Plug-In . SVG Version: 6.00 Build 0)  -->
<svg version="1.1"
	 id="svg2" inkscape:version="0.48.3.1 r9886" sodipodi:docname="119.svg.2010_11_21_00_15_54.0.svg" xmlns:cc="http://creativecommons.org/ns#" xmlns:dc="http://purl.org/dc/elements/1.1/" xmlns:inkscape="http://www.inkscape.org/namespaces/inkscape" xmlns:ns1="http://sozi.baierouge.fr" xmlns:rdf="http://www.w3.org/1999/02/22-rdf-syntax-ns#" xmlns:sodipodi="http://sodipodi.sourceforge.net/DTD/sodipodi-0.dtd" xmlns:svg="http://www.w3.org/2000/svg"
	 xmlns="http://www.w3.org/2000/svg" xmlns:xlink="http://www.w3.org/1999/xlink" x="0px" y="0px" viewBox="0 0 823.7 171.4"
	 style="enable-background:new 0 0 823.7 171.4;" xml:space="preserve">
<style type="text/css">
	.st0{fill:#555555;stroke:#000000;stroke-width:16;stroke-linecap:round;stroke-linejoin:round;}
	.st1{fill:#2A2A2A;}
	.st2{fill:url(#path3880_1_);}
	.st3{fill:url(#path3870_1_);}
	.st4{fill:#555555;}
	.st5{fill-rule:evenodd;clip-rule:evenodd;fill:#9C9C9C;}
</style>
<sodipodi:namedview  bordercolor="#666666" borderopacity="1" fit-margin-bottom="0" fit-margin-left="0" fit-margin-right="0" fit-margin-top="0" gridtolerance="10" guidetolerance="10" id="namedview4" inkscape:current-layer="layer2" inkscape:cx="337.82929" inkscape:cy="232.01178" inkscape:object-nodes="true" inkscape:pageopacity="0" inkscape:pageshadow="2" inkscape:snap-nodes="true" inkscape:snap-smooth-nodes="true" inkscape:window-height="1181" inkscape:window-maximized="0" inkscape:window-width="839" inkscape:window-x="252" inkscape:window-y="0" inkscape:zoom="0.5" objecttolerance="10" pagecolor="#ffffff" showgrid="false">
	
		<inkscape:grid  empspacing="5" enabled="true" id="grid4347" originx="21.903827px" originy="-151.66837px" snapvisiblegridlinesonly="true" type="xygrid" visible="true">
		</inkscape:grid>
</sodipodi:namedview>
<g id="layer2" transform="translate(21.904 14.097)" inkscape:groupmode="layer" inkscape:label="all">
	<path id="path4363" inkscape:connector-curvature="0" class="st0" d="M324.3-6.1c-2.8,0.1-5.3,0.7-6.5,2.5c-0.7,5.2-1.4,11.3-2,18
		l-2.7,2.2c0,0-15.9,1.6-36-1.2c-20.2-2.8-56.5-0.2-84,0.2c-27.5,0.4-56.8,1.2-80.5,2.9s-29.3,2.7-29.3,2.7s-30.1,2.9-44.9,5.1
		s-19,2.3-25.2,5.1C7,34.3,0.9,44.1-3.2,54.7c-4.2,10.5-10.5,44.4-9.1,49c1.5,4.6,3.6,11.4,9.4,16.3c5.7,4.9,11.8,6.7,14.5,4.6
		c2.7-2.1,33.7-33.4,33.7-33.4s3.1-2.2,10.1,0.1c7,2.4,19.9-0.5,19.9-0.5s2.7,3.4,12.3,3.2c11.2-0.2,29.8-1.1,40.8,0.4
		c11.8,1.7,28.6,3,38.5,2.4c9.9-0.6,23.2-0.7,28.2-0.7c5,0.1,31.8,3.7,40.3,4.3c8.6,0.6,26.7-2.8,34.6-3.1
		c7.4-0.3,26.4-5.2,35.9,0.9c1.5,1,2.6,1.8,3.6,2.6c-0.9,17-1.8,33.3-2.4,46.8c2.4,3.8,18.1,0.4,19.2-4.4l2.6-43.6
		c13-0.9,24.1,0.8,32.9,5.3c0,0,85.4,1.3,102.4,1.7c17,0.4,149.1,7.7,176.7,6.4c27.6-1.2,40.4-2.5,59.7-8
		c18.2-5.2,32.4-11.5,51.9-23.6c39.9-24.7,41.1-33,41.1-33l-85.5,5.2l-20.8-1c-13.5-0.9-31-2.4-45.2-5.3
		c-26.8-5.4-77.3-15.6-77.3-15.6L333.2,29l2-33.6C334.3-4.7,328.9-6.2,324.3-6.1L324.3-6.1z"/>
	<path id="path4804" inkscape:connector-curvature="0" class="st1" d="M75.3,90.8c0,0-12.9,2.9-19.9,0.5c-7-2.4-10.1-0.1-10.1-0.1
		s-31.1,31.3-33.7,33.4c-2.7,2.1-8.7,0.3-14.5-4.6c-5.7-4.9-7.9-11.7-9.4-16.3c-1.5-4.6,4.9-38.4,9.1-49C1,44.2,7,34.3,13.2,31.4
		c6.2-2.8,10.4-2.9,25.2-5.1s44.9-5.1,44.9-5.1L75.3,90.8z"/>
	<path id="path4124" inkscape:connector-curvature="0" sodipodi:nodetypes="ccssscsscssssssscc" class="st1" d="M313.2,107.2
		c0,0,2.2-2.8-7.3-9c-9.5-6.2-28.4-1.2-35.9-0.9c-8,0.3-26,3.7-34.6,3.1c-8.6-0.6-35.3-4.2-40.3-4.3c-5-0.1-18.4,0-28.3,0.7
		c-9.8,0.6-26.6-0.7-38.5-2.4c-11-1.5-29.5-0.6-40.8-0.4c-9.6,0.2-12.3-3.2-12.3-3.2S73,75.6,71.6,68.5c-1.4-7.1,0.7-18.7,3.7-30.5
		s8-16.8,8-16.8s5.6-0.9,29.3-2.7s53-2.4,80.5-2.8c27.5-0.4,63.8-3,84-0.3c20.2,2.8,36,1.2,36,1.2l5.6-4.7L313.2,107.2z"/>
	
		<linearGradient id="path3880_1_" gradientUnits="userSpaceOnUse" x1="197.4131" y1="-155.2195" x2="222.923" y2="-212.3395" gradientTransform="matrix(-0.9526 0.3043 -0.3043 -0.9526 711.6089 -165.6753)">
		<stop  offset="0" style="stop-color:#F7F7F7"/>
		<stop  offset="1" style="stop-color:#D1D2D4"/>
	</linearGradient>
	<path id="path3880" inkscape:connector-curvature="0" sodipodi:nodetypes="csasscccccc" class="st2" d="M708.3,53.7L648,50.8
		L371.7,40.7L344,70.5l18,34.4c0,0,85.4,1.3,102.4,1.6c17,0.4,149.2,7.7,176.7,6.4c27.5-1.2,40.4-2.5,59.7-8
		c18.2-5.2,32.4-11.5,51.9-23.6c39.9-24.7,41.1-33,41.1-33L708.3,53.7z"/>
	
		<linearGradient id="path3870_1_" gradientUnits="userSpaceOnUse" x1="81.6548" y1="-231.3358" x2="428.7388" y2="-102.5059" gradientTransform="matrix(-0.9526 0.3043 -0.3043 -0.9526 711.6089 -165.6753)">
		<stop  offset="0" style="stop-color:#A9A9A9"/>
		<stop  offset="1" style="stop-color:#EAEAEA"/>
	</linearGradient>
	<path id="path3870" inkscape:connector-curvature="0" sodipodi:nodetypes="cscccccssc" class="st3" d="M708.3,53.7
		c-27.3,11.1-66.6,10.2-86.1,9.4c-19.5-0.8-230.4-6.8-241.1-7.4c-10.7-0.7-12.5,2.8-12.5,2.8l-6.7,46.4c-9.3-4.8-21-6.4-34.8-5.2
		l4.2-70.8l233.7,2.8c0,0,50.5,10.2,77.3,15.6C669,52.9,708.3,53.7,708.3,53.7L708.3,53.7z"/>
	<path id="path4007-2" inkscape:connector-curvature="0" sodipodi:nodetypes="ccccc" class="st4" d="M335.2-4.5
		c-1.5-0.3-14.2-3.9-17.5,1c-4.6,35.3-8.6,107.5-10.6,151.2c2.4,3.8,18.1,0.4,19.2-4.4L335.2-4.5L335.2-4.5z"/>
	
		<path id="path4397" sodipodi:cx="541.6438" sodipodi:cy="71.019714" sodipodi:rx="16.970562" sodipodi:ry="16.970562" sodipodi:type="arc" class="st5" d="
		M244.6,56.7c0.1-9.4,7.7-16.9,17.1-16.8c9.4,0.1,16.9,7.7,16.8,17.1c0,0.1,0,0.2,0,0.3c-0.1,9.4-7.7,16.9-17.1,16.8
		c-9.4-0.1-16.9-7.7-16.8-17.1C244.6,56.8,244.6,56.7,244.6,56.7z"/>
	
		<path id="path4399" sodipodi:cx="541.6438" sodipodi:cy="71.019714" sodipodi:rx="16.970562" sodipodi:ry="16.970562" sodipodi:type="arc" class="st5" d="
		M146.6,56.7c0.1-9.4,7.7-16.9,17.1-16.8c9.4,0.1,16.9,7.7,16.8,17.1c0,0.1,0,0.2,0,0.3c-0.1,9.4-7.7,16.9-17.1,16.8
		c-9.4-0.1-16.9-7.7-16.8-17.1C146.6,56.8,146.6,56.7,146.6,56.7z"/>
	
		<path id="path4401" sodipodi:cx="541.6438" sodipodi:cy="71.019714" sodipodi:rx="16.970562" sodipodi:ry="16.970562" sodipodi:type="arc" class="st5" d="
		M60.6,56.7c0.1-9.4,7.7-16.9,17.1-16.8c9.4,0.1,16.9,7.7,16.8,17.1c0,0.1,0,0.2,0,0.3c-0.1,9.4-7.7,16.9-17.1,16.8
		C68,74,60.5,66.3,60.6,56.9C60.6,56.8,60.6,56.7,60.6,56.7z"/>
</g>
</svg>
