<?xml version="1.0" encoding="utf-8"?>
<!-- Generator: Adobe Illustrator 25.3.1, SVG Export Plug-In . SVG Version: 6.00 Build 0)  -->
<svg version="1.1" id="Layer_1" xmlns="http://www.w3.org/2000/svg" xmlns:xlink="http://www.w3.org/1999/xlink" x="0px" y="0px"
	 viewBox="0 0 783 158.5" style="enable-background:new 0 0 783 158.5;" xml:space="preserve">
<style type="text/css">
	.st0{fill:#E6E6E6;}
	.st1{fill:#B3B3B3;}
	.st2{fill:#999999;}
	.st3{fill:#F95428;}
	.st4{fill:#E54728;}
	.st5{fill:#808080;}
	.st6{fill:#FDED19;}
</style>
<g id="Layer_2_1_">
	<g>
	</g>
</g>
<g id="Layer_3">
	<g>
	</g>
	<g id="Layer_1_1_">
		<g>
			<g>
				<polygon class="st0" points="473.4,137.5 503.4,137.5 497.9,108.9 451.6,102.7 				"/>
				<polygon class="st0" points="357.5,151 381.6,151 368.6,108.9 331.5,100.2 				"/>
				<polygon class="st0" points="211,151 271.6,151 258.6,108.9 159,95.1 				"/>
				<polygon class="st0" points="473.4,24.2 503.4,24.2 497.9,52.9 451.6,59 				"/>
				<polygon class="st0" points="357.5,10.7 381.6,10.7 368.6,52.9 331.5,61.5 				"/>
				<polygon class="st0" points="211,10.7 271.6,10.7 258.6,52.9 159,66.6 				"/>
			</g>
			<path class="st1" d="M106.7,52.9h2.2h62.7l0,0h87.1H498v56h-42.6h-86.7H335h-76.3h-152c-1.8,0-3.7,0-5.6-0.1V53
				C102.9,52.9,104.8,52.9,106.7,52.9z"/>
			<path class="st2" d="M106.7,96.5h2.2h62.7l0,0h87.1H498v12.4h-42.6h-86.8h-33.7h-76.3h-152c-1.8,0-3.7,0-5.6,0V96.5
				C102.9,96.5,104.8,96.5,106.7,96.5z"/>
			<path class="st3" d="M98.9,53c0.7,0,1.5-0.1,2.2-0.1v55.8c-0.7,0-1.5,0-2.2-0.1c-14.7-0.6-29.2-3-43.2-7
				C39.2,97,23.3,90,8.6,80.9C35.8,63.9,66.9,54.4,98.9,53z"/>
			<path class="st4" d="M55.7,92c14,2.1,28.5,3.4,43.2,3.7c0.7,0,1.5,0,2.2,0v13c-0.7,0-1.5,0-2.2-0.1c-14.7-0.6-29.2-3-43.2-7
				C39.2,97,23.3,90,8.6,80.9C23.3,85.7,39.2,89.5,55.7,92z"/>
			<g>
				<rect x="166.8" y="76.1" class="st0" width="96.6" height="9.5"/>
				<rect x="323.6" y="76.1" class="st0" width="52.2" height="9.5"/>
				<rect x="464" y="76.1" class="st0" width="37.6" height="9.5"/>
			</g>
			<g>
				<path class="st5" d="M101.1,52.9c1.8-0.1,3.7-0.1,5.6-0.1h2.2v56h-2.2c-1.8,0-3.7,0-5.6-0.1c-0.7,0-1.5,0-2.2-0.1V53
					C99.6,53,100.4,53,101.1,52.9z"/>
				<rect x="289.1" y="52.9" class="st5" width="10" height="56"/>
				<rect x="426.4" y="52.9" class="st5" width="10" height="56"/>
			</g>
		</g>
	</g>
</g>
<path class="st3" d="M501.6,79.9c0,0,11-96.1,266,0C516.6,180,501.6,79.9,501.6,79.9z"/>
<path class="st6" d="M509.5,80.5c0,0,5.2-45.2,125.1,0C516.6,127.6,509.5,80.5,509.5,80.5z"/>
</svg>
