<?xml version="1.0" encoding="utf-8"?>
<!-- Generator: Adobe Illustrator 25.3.1, SVG Export Plug-In . SVG Version: 6.00 Build 0)  -->
<svg version="1.1" id="Layer_1" xmlns="http://www.w3.org/2000/svg" xmlns:xlink="http://www.w3.org/1999/xlink" x="0px" y="0px"
	 viewBox="0 0 635.4 206.6" style="enable-background:new 0 0 635.4 206.6;" xml:space="preserve">
<style type="text/css">
	.st0{clip-path:url(#SVGID_2_);}
	.st1{fill:#006B80;}
	.st2{fill:#003435;}
	.st3{fill:#36404D;}
	.st4{fill:#8A764B;}
	.st5{fill:#6D5C24;}
	.st6{fill:#108C44;}
	.st7{fill:#09743B;}
</style>
<g>
	<g>
		<defs>
			
				<rect id="SVGID_1_" x="54.6" y="-150" transform="matrix(0.695 -0.719 0.719 0.695 22.6932 245.3217)" width="491.9" height="491.9"/>
		</defs>
		<clipPath id="SVGID_2_">
			<use xlink:href="#SVGID_1_"  style="overflow:visible;"/>
		</clipPath>
		<g class="st0">
			<g id="Group">
				<path class="st1" d="M14.2,152.1c-1.3-1.2-2.1-2.9-2-4.7l-1.6-93c0-1.7,0.6-3.5,1.9-4.7c1.2-1.3,2.9-2.1,4.7-2
					c1.7,0,3.5,0.6,4.7,1.9s2.1,2.9,2,4.7l0.1,8L92.1,78l31.8-0.5l0.7,43.1l-31.8,0.5l-67.5,18.1l0.1,8c0,1.7-0.6,3.5-1.9,4.7
					c-1.2,1.3-2.9,2.1-4.7,2C17.2,154,15.5,153.3,14.2,152.1z"/>
				<path class="st2" d="M117.4,84.2l0.5,29.8l-24.3,0.4l-1.7,0l-1.6,0.4l-61.7,16.5l-10.1,2.7l-1.2-77.1l0.2,10.4l10.2,2.4
					l62.2,14.5l1.6,0.4l1.7,0L117.4,84.2z M18.8,144.5l0,2.8L18.8,144.5z M130.5,70.7l-37.6,0.6L30.7,56.9L30.5,54
					C30.4,46.6,24.4,40.8,17,41C9.6,41.1,3.8,47.2,4,54.5l1.6,93.2c0.1,7.4,6.2,13.3,13.5,13.1c7.4-0.1,13.3-6.2,13.1-13.5l0-2.8
					L93.8,128l37.6-0.6L130.5,70.7z"/>
				<path class="st3" d="M243,49.9c5.1-5.3,13.6-5.4,18.9-0.3c5.3,5.1,5.4,13.6,0.3,18.9c-5.1,5.3-13.6,5.4-18.9,0.3
					C238,63.7,237.9,55.2,243,49.9z"/>
				<path class="st3" d="M356,48c5.1-5.3,13.6-5.4,18.9-0.3s5.4,13.6,0.3,18.9c-5.1,5.3-13.6,5.4-18.9,0.3
					C350.9,61.7,350.8,53.3,356,48z"/>
				<path class="st4" d="M99,77.6l32.2-0.3L178.7,67l67.3-1.1l1.1,62l-68.6,1.2l-45.9-8.5l-32.4,0.5L99,77.6z"/>
				<path class="st5" d="M239.5,72.7l0.8,48.7l-60.6,1l-45.9-8.3l-1.3-0.2l-1.4,0l-24.4,0.4l-1-30l24.8-0.2l1.4,0l1.3-0.3l45.6-9.9
					L239.5,72.7z M252.6,59.2l-75.3,1.3l-46.8,10.2l-38.4,0.4l1.7,56.7l37.6-0.6l47.1,8.6l75.3-1.3L252.6,59.2z"/>
				<path class="st3" d="M262.8,107.1c3.7-0.1,6.7,2.8,6.8,6.5l1.3,77c0,3.6-2.9,6.6-6.5,6.6c-3.6,0.1-6.6-2.7-6.8-6.4l-1.3-77
					c0-1.7,0.6-3.5,1.9-4.7C259.3,107.8,261.1,107.1,262.8,107.1z M318.9,88c3.7-0.1,6.7,2.8,6.8,6.5l1.6,95.1
					c0,3.6-2.9,6.6-6.5,6.6c-3.6,0.1-6.6-2.7-6.8-6.4l-1.6-95.1C312.4,91.1,315.3,88.2,318.9,88z"/>
				<path class="st3" d="M372,120.3c0.6,0.6,1.7,2,1.8,4.1l0.6,37.9c0,2.2-0.9,3.5-1.6,4.1c-0.9,0.9-2.1,1.6-3.5,1.6l-36.9,0.6
					c-1.3-0.1-2.6-0.5-3.5-1.4c-1.1-1.1-1.7-2.6-1.8-4.1l-0.6-37.9c0-1.5,0.5-3,1.6-4.1c0.9-0.9,2.1-1.6,3.5-1.6l36.9-0.6
					C369.8,118.8,371.1,119.3,372,120.3z M381.2,110.7c-3.4-3.3-8-5.3-12.9-5.2l-36.9,0.6c-10.2,0.2-18.3,8.9-18.1,19.2l0.6,37.9
					c0.1,5.1,2.2,9.9,5.9,13.4c3.4,3.3,8,5.3,12.9,5.2l36.9-0.6c10.2-0.2,18.3-8.9,18.1-19.2l-0.6-37.9
					C387,119,384.8,114.2,381.2,110.7z M375.7,103.1c-3.7,0.1-6.7-2.8-6.8-6.5l-1.3-77c-0.1-3.7,2.8-6.7,6.5-6.8s6.7,2.8,6.8,6.5
					l1.3,77C382.2,99.9,379.3,102.9,375.7,103.1z"/>
				<path class="st1" d="M221.8,66.3l179.6-3.1L444,87.9l0.2,11.3l-41.8,26.1l-179.6,3.1L221.8,66.3z"/>
				<path class="st2" d="M437.4,91.7l0.1,3.7l-37,23l-171.1,3.1l-0.8-48.7L399.6,70L437.4,91.7z M450.7,84l-47.5-27.4L215,59.8
					l1.3,75.3l188.1-3.2l46.6-29L450.7,84z"/>
				<path class="st6" d="M449.3,93.4c2.1-1.4,4.2-3.1,6-4.8c18.2-18.8,44.3-45.8,79.2-46.4c16.1-0.3,36.2,19.2,42.8,25.6
					c9.1,8.8,33.4,10.7,45.3,11.1l0.3,23.3c-12.1,0.9-36.2,3.6-44.9,12.7c-9.6,10-25.8,26.7-41.9,27c-34.9,0.6-61.4-25-80.8-43.7
					C453.6,96.3,451.5,94.7,449.3,93.4z"/>
				<path class="st7" d="M616.1,85.2l0.1,4.6l0.1,6.2c-13.8,1.4-33.9,4.9-42.9,14.2c-8.4,8.6-23.9,24.8-37.2,25
					c-32.1,0.5-57.5-23.9-76-41.8l0.8-0.9c16.6-17.1,41.6-43.1,73.7-43.5c8.8-0.1,21.6,7.8,38.1,23.7
					C582,81.5,602.2,84.4,616.1,85.2z M629.2,71.5l0,0.8l0.5,0L629.2,71.5z M629.2,72.3c-11.5,0.1-39.3-1.7-47.2-9.3
					c-8.6-8.3-29.2-27.7-47.5-27.4c-38.2,0.6-65.9,30-83.8,48.5c-3,3.1-13.9,9.7-13.9,9.7s11.2,6.2,14.2,9.2
					c19.3,18.7,47.9,46.3,85.4,45.6c18.7-0.3,35.8-17.8,46.6-29c7.8-8.1,36.1-10.8,47.4-10.9l-0.5-0.8l-0.3-18.1L629.2,72.3z"/>
				<path class="st7" d="M438.2,62.7l31.5,30.5l-30.5,31.5L438.2,62.7z"/>
				<path class="st7" d="M460.2,93.3l-14.7,15.2L445,78.5L460.2,93.3z M478.9,93l-47.9-46.3l1.6,94.1L478.9,93z"/>
				
					<rect x="462.9" y="86.5" transform="matrix(0.695 -0.719 0.719 0.695 76.2257 366.0758)" class="st7" width="13.3" height="13.3"/>
				
					<rect x="528.7" y="42.1" transform="matrix(0.9999 -1.699821e-02 1.699821e-02 0.9999 -1.4618 9.1142)" class="st7" width="13.3" height="96.8"/>
			</g>
		</g>
	</g>
</g>
</svg>
