<svg id="Layer_1" data-name="Layer 1" xmlns="http://www.w3.org/2000/svg" viewBox="0 0 501.33 123.72"><defs><style>.cls-1{fill:#b3b3b3;}.cls-2{fill:#666;}.cls-3{fill:gray;}.cls-4{fill:#4d4d4d;}.cls-5{fill:#999;}</style></defs><path class="cls-1" d="M160.7,102.86h0l-28.52.57.13-6.71,26.45-.53,9.51-18.46,5.94,2.87L163.74,101A3.53,3.53,0,0,1,160.7,102.86Z" transform="translate(-5.34 -11.31)"/><path class="cls-1" d="M372.15,64,361.93,50.34A6,6,0,0,0,357,48h0l-30.19.62-.25,12.58,27.06-.55,2.78,3.72-29.92.6-.26,12.58,41.95-.84,119.11-2.41.25-12.59Z" transform="translate(-5.34 -11.31)"/><path class="cls-2" d="M137.12,87.21l-35.86,22.55-1.27-.44L14.62,125.94a6.68,6.68,0,0,1-8-7.53A137.24,137.24,0,0,0,7.79,97.09,133.82,133.82,0,0,0,5.46,75.2a7.3,7.3,0,0,1,7-8.54S141,64.2,140.93,64.5Z" transform="translate(-5.34 -11.31)"/><polygon class="cls-2" points="156.47 47.39 146.46 43.47 155.04 23.31 165.05 27.24 156.47 47.39"/><polygon class="cls-2" points="202.72 46.45 194.94 26.63 205.12 22.3 212.89 42.12 202.72 46.45"/><path class="cls-3" d="M128.4,129.07a9.4,9.4,0,0,1-10.6,5.75l-17.28-3.76a6,6,0,0,1-4.27-8.14l5-13.16,8.87-23.28,19.71-12.54,15.9,11.82-8.39,21Z" transform="translate(-5.34 -11.31)"/><path class="cls-3" d="M229,108.39l-29.3.59a5.52,5.52,0,0,1-5.68-5.67l.5-24.81,40.9-.82-.5,24.8A6.1,6.1,0,0,1,229,108.39Z" transform="translate(-5.34 -11.31)"/><path class="cls-1" d="M246.4,83.72l-15.94.33-36.07.72-17.61.36-31,.63-35.61.72,7.75-20.35c.11-.3.24-.58.35-.86A17.3,17.3,0,0,1,133.57,55l34.18-.69,52-1.06L247,52.69Z" transform="translate(-5.34 -11.31)"/><polygon class="cls-4" points="190.44 30.5 170.22 30.91 128.8 31.75 129.27 8.61 231.5 6.54 231.03 29.68 207.12 30.16 190.44 30.5"/><path class="cls-2" d="M326.82,46.05l-79.69,1.6h0a5.3,5.3,0,0,0-3.59,1.55A5.21,5.21,0,0,0,242,52.79l-.63,31a4.78,4.78,0,0,0,4.93,4.93l.37,0,79.81-7.48a5.27,5.27,0,0,0,4.76-5.11L331.75,51A4.79,4.79,0,0,0,326.82,46.05Z" transform="translate(-5.34 -11.31)"/><path class="cls-4" d="M326.73,68.67l-79.81,7.48-.37,0a4.79,4.79,0,0,1-4.93-4.93l-.25,12.58a4.78,4.78,0,0,0,4.93,4.93,2.3,2.3,0,0,0,.37,0l79.81-7.47a5.29,5.29,0,0,0,4.76-5.12l.26-12.58A5.29,5.29,0,0,1,326.73,68.67Z" transform="translate(-5.34 -11.31)"/><polygon class="cls-1" points="429.54 61.48 429.95 40.52 442.63 35.22 442.12 61.22 429.54 61.48"/><path class="cls-3" d="M236.24,47.53a6,6,0,0,1-6.17-6.15l.05-2.59.38-18.47,0-2.58A6.62,6.62,0,0,1,237,11.31h0a6,6,0,0,1,6.17,6.15l0,2.59-.38,18.47,0,2.58a6.62,6.62,0,0,1-6.41,6.43Z" transform="translate(-5.34 -11.31)"/><path class="cls-2" d="M242.84,32a6.61,6.61,0,0,1-6.4,6.35h0a6,6,0,0,1-6.16-6.15l-.14,6.64-.05,2.59a6,6,0,0,0,6.17,6.15h0a6.62,6.62,0,0,0,6.41-6.43l0-2.58Z" transform="translate(-5.34 -11.31)"/><path class="cls-3" d="M134,49.6a6,6,0,0,1-6.16-6.17l.47-23.62a6.61,6.61,0,0,1,6.41-6.43h0a6,6,0,0,1,6.16,6.15l0,2.59-.43,21.06A6.61,6.61,0,0,1,134,49.6Z" transform="translate(-5.34 -11.31)"/><path class="cls-2" d="M140.6,34a6.61,6.61,0,0,1-6.4,6.35h0A6,6,0,0,1,128,34.22l-.14,6.64,0,2.59A6,6,0,0,0,134,49.6h0a6.61,6.61,0,0,0,6.4-6.44l.05-2.57Z" transform="translate(-5.34 -11.31)"/><polygon class="cls-5" points="500.92 65.92 453.11 66.89 453.52 46.76 501.33 45.79 500.92 65.92"/><polygon class="cls-2" points="212.25 56.67 158.15 57.76 158.26 52.31 212.36 51.22 212.25 56.67"/></svg>