<?xml version="1.0" encoding="utf-8"?>
<!-- Generator: Adobe Illustrator 25.3.1, SVG Export Plug-In . SVG Version: 6.00 Build 0)  -->
<svg version="1.1" id="Capa_1" xmlns="http://www.w3.org/2000/svg" xmlns:xlink="http://www.w3.org/1999/xlink" x="0px" y="0px"
	 viewBox="0 0 400 400" style="enable-background:new 0 0 400 400;" xml:space="preserve">
<style type="text/css">
	.st0{fill:#736771;}
	.st1{fill:#5D505B;}
	.st2{fill:#FFFFFF;}
	.st3{fill:none;}
	.st4{opacity:0.28;fill:#534551;enable-background:new    ;}
</style>
<g>
	<g>
		<g>
			<polygon class="st0" points="214.9,149.3 209.3,192.1 139.9,192.1 139.9,206 207.5,206 214.9,206 222.3,206 229.7,149.3 			"/>
			<polygon class="st1" points="58,97 31.6,97 38.9,58.1 58,58.1 			"/>
			<polygon class="st0" points="369.9,121.2 38.9,121.2 53.4,72.8 369.9,72.8 			"/>
			<polygon class="st2" points="375.1,72.8 53.4,72.8 58.7,58.1 375.1,58.1 			"/>
			<rect x="369.9" y="81.9" class="st1" width="28.5" height="39.2"/>
			<rect x="315.2" y="44.8" class="st1" width="44.4" height="13.3"/>
			<polygon class="st1" points="281.2,138.6 269.8,138.6 281.2,93.6 292.6,93.6 			"/>
			<polyline class="st1" points="292.6,138.6 304,93.6 315.4,93.6 304,138.6 			"/>
			<polyline class="st1" points="315.4,138.6 326.8,93.6 338.2,93.6 326.8,138.6 			"/>
			<polygon class="st1" points="93.9,58.1 38.9,58.1 41.3,44.8 93.9,44.8 			"/>
			<rect x="66.4" y="87.8" class="st1" width="55" height="11.6"/>
			<polygon class="st1" points="134.6,324.8 29.3,324.8 53.2,138.6 158.6,138.6 			"/>
			<polygon class="st0" points="125.2,312.2 44.3,312.2 62.7,169.1 143.6,169.1 			"/>
			<path class="st1" d="M25.2,156.1c0,0,32.8,0,32.8,36.4l49.3-28.2l-13.4-31.7l-68.7,6.1C25.2,138.6,25.2,156.1,25.2,156.1z"/>
			<path class="st1" d="M107.3,231.7c0-7.5-6-13.6-13.4-13.6c-7.4,0-13.4,6.1-13.4,13.6c0,7.5,6,13.6,13.4,13.6
				C101.3,245.3,107.3,239.2,107.3,231.7z"/>
			<path class="st1" d="M102.1,282.4c0-7.5-6-13.5-13.4-13.5c-7.4,0-13.4,6.1-13.4,13.5c0,7.5,6,13.6,13.4,13.6
				C96.1,295.9,102.1,289.9,102.1,282.4z"/>
			<polygon class="st0" points="140.9,340.2 20.2,340.2 29.3,324.8 134.6,324.8 			"/>
			<rect x="20.2" y="340.2" class="st1" width="120.7" height="15"/>
			<path class="st1" d="M1.6,121.2v35h162.2c3.5,8.9,12,15.2,22,15.2v-8.5c-4-1.3-7.4-3.6-10.2-6.7h43.1l-5.6,42.8h-69.5v13.9h67.6
				h7.4h7.4l7.4-56.7h136.4v-35L1.6,121.2L1.6,121.2z"/>
		</g>
		<polygon class="st3" points="209.3,192.1 214,156.1 204.4,156.1 204.4,192.1 		"/>
		<polygon class="st1" points="58,60.1 58.7,58.1 58,58.1 		"/>
		<path class="st4" d="M151.7,192.1l4.6-36h7.4c3.5,8.9,12,15.2,22,15.2v-8.5c-4-1.3-7.4-3.6-10.2-6.7h28.8v-98H93.9V44.8H41.3
			l-2.4,13.3L31.6,97h14.6l-7.3,24.2H1.6v35h23.6c0,0,14.6,0,24.4,10.9L29.3,324.8l-9.1,15.3v15h120.7v-15l-6.3-15.3l14.4-112h55.3
			v-20.8L151.7,192.1L151.7,192.1z M58,60.1v-2h0.7L58,60.1z"/>
	</g>
</g>
</svg>
