<?xml version="1.0" encoding="UTF-8" standalone="no"?>
<!-- Created with Inkscape (http://www.inkscape.org/) -->

<svg
   xmlns:dc="http://purl.org/dc/elements/1.1/"
   xmlns:cc="http://creativecommons.org/ns#"
   xmlns:rdf="http://www.w3.org/1999/02/22-rdf-syntax-ns#"
   xmlns:svg="http://www.w3.org/2000/svg"
   xmlns="http://www.w3.org/2000/svg"
   xmlns:sodipodi="http://sodipodi.sourceforge.net/DTD/sodipodi-0.dtd"
   xmlns:inkscape="http://www.inkscape.org/namespaces/inkscape"
   width="297mm"
   height="85mm"
   viewBox="0 0 297 85"
   version="1.1"
   id="svg2230"
   inkscape:version="0.92.2 (unknown)"
   sodipodi:docname="akflatSVG.svg">
  <defs
     id="defs2224" />
  <sodipodi:namedview
     id="base"
     pagecolor="#ffffff"
     bordercolor="#666666"
     borderopacity="1.0"
     inkscape:pageopacity="0.0"
     inkscape:pageshadow="2"
     inkscape:zoom="0.98994949"
     inkscape:cx="421.02961"
     inkscape:cy="188.95887"
     inkscape:document-units="mm"
     inkscape:current-layer="layer1"
     showgrid="false"
     height="65mm"
     inkscape:window-width="2560"
     inkscape:window-height="1057"
     inkscape:window-x="0"
     inkscape:window-y="23"
     inkscape:window-maximized="1" />
  <metadata
     id="metadata2227">
    <rdf:RDF>
      <cc:Work
         rdf:about="">
        <dc:format>image/svg+xml</dc:format>
        <dc:type
           rdf:resource="http://purl.org/dc/dcmitype/StillImage" />
        <dc:title></dc:title>
      </cc:Work>
    </rdf:RDF>
  </metadata>
  <g
     inkscape:label="Layer 1"
     inkscape:groupmode="layer"
     id="layer1"
     transform="translate(0,-212)">
    <g
       style="display:inline;opacity:1"
       id="g2099"
       transform="matrix(0.42765216,0,0,0.42765216,49.433588,198.27012)">
      <path
         style="fill:none;fill-rule:evenodd;stroke:#404040;stroke-width:7.86130238;stroke-linecap:round;stroke-linejoin:miter;stroke-miterlimit:4;stroke-dasharray:none;stroke-opacity:1"
         d="m -98.275307,75.877448 c -0.36058,19.98245 0.569115,30.180852 -5.578223,77.947972"
         id="path1931"
         inkscape:connector-curvature="0"
         sodipodi:nodetypes="cc" />
      <path
         sodipodi:nodetypes="cc"
         inkscape:connector-curvature="0"
         id="path1933"
         d="m -99.300346,114.94314 c -1.385614,13.29207 -2.185674,17.4153 -4.553184,38.88228"
         style="fill:none;fill-rule:evenodd;stroke:#333333;stroke-width:7.86130238;stroke-linecap:round;stroke-linejoin:miter;stroke-miterlimit:4;stroke-dasharray:none;stroke-opacity:1" />
      <path
         sodipodi:nodetypes="sccsscssssss"
         inkscape:connector-curvature="0"
         id="path1935"
         d="m -94.611979,72.769572 c 30.616793,-2.348936 69.000054,-0.223857 102.61495,0.254827 5.055964,1.127147 9.923161,2.325106 16.845444,2.752176 L 74.906104,64.759067 c 3.237135,-0.712483 5.423101,3.229511 5.940617,7.130861 l 1.368937,10.319894 1.014024,7.644341 c 0.517517,3.90136 -2.773396,6.057193 -5.940616,7.130868 L -101.30174,157.52656 c -3.16722,1.07366 -2.59813,-1.37079 -2.13535,-5.28204 2.93347,-24.79265 5.200835,-49.31877 5.254898,-72.959293 0.0087,-3.950482 0.285807,-6.263675 3.570213,-6.515655 z"
         style="opacity:1;vector-effect:none;fill:#a05a2c;fill-opacity:1;fill-rule:evenodd;stroke:none;stroke-width:0.28076079px;stroke-linecap:butt;stroke-linejoin:miter;stroke-miterlimit:4;stroke-dasharray:none;stroke-dashoffset:0;stroke-opacity:1" />
      <path
         style="opacity:1;vector-effect:none;fill:#c87137;fill-opacity:1;fill-rule:evenodd;stroke:#c87137;stroke-width:0.28076079px;stroke-linecap:butt;stroke-linejoin:miter;stroke-miterlimit:4;stroke-dasharray:none;stroke-dashoffset:0;stroke-opacity:1"
         d="m -95.427395,72.225799 c 30.616794,-2.348935 69.833204,-0.596541 103.430366,0.7986 5.13935,0.213414 13.963391,3.386505 16.845444,2.752176 L 74.906104,64.759067 c 3.237135,-0.712483 5.423101,3.229511 5.940617,7.130861 l 1.368937,10.319894 c -7.954851,6.934965 -151.182513,41.477628 -182.468688,39.504228 1.244449,-14.36468 2.295357,-28.626276 2.327095,-42.505725 0.0087,-3.950481 -0.785866,-6.730546 2.49854,-6.982526 z"
         id="path1937"
         inkscape:connector-curvature="0"
         sodipodi:nodetypes="sssssccss" />
      <g
         id="g1943">
        <rect
           transform="rotate(12.898466)"
           ry="0.84189904"
           y="71.144234"
           x="196.79065"
           height="14.780005"
           width="1.6837981"
           id="rect1939"
           style="opacity:1;vector-effect:none;fill:#333333;fill-opacity:1;fill-rule:evenodd;stroke:none;stroke-width:0.26458332px;stroke-linecap:butt;stroke-linejoin:miter;stroke-miterlimit:4;stroke-dasharray:none;stroke-dashoffset:0;stroke-opacity:1" />
        <path
           sodipodi:nodetypes="sssssss"
           inkscape:connector-curvature="0"
           id="path1941"
           d="m 197.63255,71.550163 c 0.44079,0 0.79566,0.354862 0.79566,0.795654 v 12.376836 c 0,0.440792 -0.35487,0.795654 -0.79566,0.795654 -0.44079,0 0.11236,-0.370867 0.11236,-0.811659 V 72.329812 c 0,-0.440792 -0.55315,-0.779649 -0.11236,-0.779649 z"
           style="opacity:1;vector-effect:none;fill:#4d4d4d;fill-opacity:1;fill-rule:evenodd;stroke:none;stroke-width:0.2500498px;stroke-linecap:butt;stroke-linejoin:miter;stroke-miterlimit:4;stroke-dasharray:none;stroke-dashoffset:0;stroke-opacity:1"
           transform="rotate(12.898466)" />
      </g>
      <path
         style="fill:#333333;fill-opacity:1;fill-rule:evenodd;stroke:none;stroke-width:0.26458332px;stroke-linecap:butt;stroke-linejoin:miter;stroke-opacity:1"
         d="m 132.95312,96.578122 10.71563,-0.132291 c -13.88387,16.289259 2.19196,20.321049 2.24896,22.026559 0.057,1.70551 -13.7941,-1.76077 -12.96459,-21.894268 z"
         id="path1945"
         inkscape:connector-curvature="0"
         sodipodi:nodetypes="cczc" />
      <rect
         ry="1.3399551"
         y="95.754906"
         x="180.94652"
         height="12.791314"
         width="4.1822214"
         id="rect1947"
         style="opacity:1;vector-effect:none;fill:#333333;fill-opacity:1;fill-rule:evenodd;stroke:none;stroke-width:0.02215928px;stroke-linecap:butt;stroke-linejoin:miter;stroke-miterlimit:4;stroke-dasharray:none;stroke-dashoffset:0;stroke-opacity:1" />
      <path
         sodipodi:nodetypes="sssssssss"
         inkscape:connector-curvature="0"
         id="path1949"
         d="m 187.21593,94.757149 h 42.96297 c 0.69238,0 1.15151,0.564416 1.24979,1.249788 6.82469,47.592433 32.65099,71.332693 60.38069,91.463413 0.5603,0.40675 0.75157,1.1436 0.37802,1.72657 l -23.17902,36.17388 c -0.37355,0.58297 -1.14247,0.7498 -1.72657,0.37802 -46.36404,-29.5106 -75.31804,-71.33635 -81.31567,-129.741883 -0.0707,-0.688761 0.55741,-1.249788 1.24979,-1.249788 z"
         style="opacity:1;vector-effect:none;fill:#333333;fill-opacity:1;fill-rule:evenodd;stroke:#333333;stroke-width:4.23333311;stroke-linecap:butt;stroke-linejoin:miter;stroke-miterlimit:4;stroke-dasharray:none;stroke-dashoffset:0;stroke-opacity:1" />
      <path
         style="opacity:1;vector-effect:none;fill:#4d4d4d;fill-opacity:1;fill-rule:evenodd;stroke:none;stroke-width:0.26458332px;stroke-linecap:butt;stroke-linejoin:miter;stroke-miterlimit:4;stroke-dasharray:none;stroke-dashoffset:0;stroke-opacity:1"
         d="m 187.21593,94.757149 h 42.96297 c 0.69238,0 1.15151,0.564416 1.24979,1.249788 6.82469,47.592433 32.65099,71.332693 60.38069,91.463413 0.5603,0.40675 0.75157,1.1436 0.37802,1.72657 l -23.17902,36.17388 c -0.37355,0.58297 -1.14247,0.7498 -1.72657,0.37802 -46.36404,-29.5106 -75.31804,-71.33635 -81.31567,-129.741883 -0.0707,-0.688761 0.55741,-1.249788 1.24979,-1.249788 z"
         id="path1951"
         inkscape:connector-curvature="0"
         sodipodi:nodetypes="sssssssss" />
      <path
         sodipodi:nodetypes="cc"
         style="fill:none;fill-opacity:1;fill-rule:evenodd;stroke:#333333;stroke-width:3.70416665;stroke-linecap:round;stroke-linejoin:miter;stroke-miterlimit:4;stroke-dasharray:none;stroke-opacity:1"
         d="M 263.23052,219.42468 C 225.90365,189.99009 198.29796,158.54838 189.72214,95.900085"
         id="path1953"
         inkscape:connector-curvature="0" />
      <rect
         style="opacity:1;vector-effect:none;fill:#333333;fill-opacity:1;fill-rule:evenodd;stroke:none;stroke-width:0.26458332px;stroke-linecap:butt;stroke-linejoin:miter;stroke-miterlimit:4;stroke-dasharray:none;stroke-dashoffset:0;stroke-opacity:1"
         id="rect1955"
         width="103.1875"
         height="46.566666"
         x="285.48541"
         y="43"
         ry="0.78206605" />
      <path
         style="opacity:1;vector-effect:none;fill:#333333;fill-opacity:1;fill-rule:evenodd;stroke:none;stroke-width:0.17060909px;stroke-linecap:butt;stroke-linejoin:miter;stroke-miterlimit:4;stroke-dasharray:none;stroke-dashoffset:0;stroke-opacity:1"
         d="M 93.519249,47.681384 H 282.67241 c 2.18686,0 3.94741,1.760542 3.94741,3.947404 v 7.428203 c 0,2.186862 -1.76055,3.947404 -3.94741,3.947404 H 81.299224 c -2.186862,0 -3.018382,-2.705855 -1.6323,-3.947404 6.039921,-5.410111 11.914903,-11.299827 13.852325,-11.375607 z"
         id="path1957"
         inkscape:connector-curvature="0"
         sodipodi:nodetypes="cssssssc" />
      <path
         style="display:inline;opacity:1;vector-effect:none;fill:#404040;fill-opacity:1;fill-rule:evenodd;stroke:none;stroke-width:0.48120078px;stroke-linecap:butt;stroke-linejoin:miter;stroke-miterlimit:4;stroke-dasharray:none;stroke-dashoffset:0;stroke-opacity:1"
         d="M 88.157146,51.983211 H 194.82214 c 0.83636,0 1.50967,1.646846 1.50967,3.692483 0,2.045638 -0.67331,3.692484 -1.50967,3.692484 H 79.90238 c 2.535447,-2.363972 6.879893,-6.683343 8.254766,-7.384967 z"
         id="path1959"
         inkscape:connector-curvature="0"
         sodipodi:nodetypes="cssscc" />
      <path
         style="opacity:1;vector-effect:none;fill:#4d4d4d;fill-opacity:1;fill-rule:evenodd;stroke:none;stroke-width:0.26458332px;stroke-linecap:butt;stroke-linejoin:miter;stroke-miterlimit:4;stroke-dasharray:none;stroke-dashoffset:0;stroke-opacity:1"
         d="m 197.64375,51.334373 h 50.13854 c 2.85829,0 4.08362,2.301082 4.08362,5.159375 0,2.858294 -1.22533,5.159375 -4.08362,5.159375 h -50.13854 c -2.85829,0 -5.15938,0.271388 -5.15938,-2.586906 0,-2.858293 2.30109,-7.731844 5.15938,-7.731844 z"
         id="path1961"
         inkscape:connector-curvature="0"
         sodipodi:nodetypes="sssssss" />
      <rect
         ry="1.2353162"
         y="52.889496"
         x="195.28766"
         height="2.4706323"
         width="54.112747"
         id="rect1963"
         style="display:inline;opacity:1;vector-effect:none;fill:#808080;fill-opacity:1;fill-rule:evenodd;stroke:none;stroke-width:0.19592264px;stroke-linecap:butt;stroke-linejoin:miter;stroke-miterlimit:4;stroke-dasharray:none;stroke-dashoffset:0;stroke-opacity:1" />
      <path
         style="opacity:1;vector-effect:none;fill:#404040;fill-opacity:1;fill-rule:evenodd;stroke:none;stroke-width:0.99999994px;stroke-linecap:butt;stroke-linejoin:miter;stroke-miterlimit:4;stroke-dasharray:none;stroke-dashoffset:0;stroke-opacity:1"
         d="m 927.19141,132.65234 c -0.0902,0.0329 -0.17383,2.86471 -0.17383,6.42383 v 10.11133 5.94922 2.88867 c 0,0.12646 0.0243,0.24619 0.0371,0.36914 0.0308,1.78619 0.0751,3.16797 0.13672,3.16797 h 3.36132 3.83594 142.88864 c 1.9587,0 3.5352,-1.57843 3.5352,-3.53711 v -8.83789 c 0,-1.95868 -1.5765,-3.53516 -3.5352,-3.53516 H 934.5625 v -6.57617 c 0,-3.55912 -0.0828,-6.39333 -0.17383,-6.42383 -2.07465,-0.69522 -4.30517,-1.05644 -7.19726,0 z"
         transform="scale(0.26458333)"
         id="path1965"
         inkscape:connector-curvature="0"
         sodipodi:nodetypes="ssccscsccsssscsss" />
      <path
         sodipodi:nodetypes="cc"
         style="fill:none;fill-opacity:1;fill-rule:evenodd;stroke:#808080;stroke-width:1.58749998;stroke-linecap:round;stroke-linejoin:miter;stroke-miterlimit:4;stroke-dasharray:none;stroke-opacity:1"
         d="M 272.83463,186.22336 C 257.09954,173.29557 230.64333,145.53354 218.50854,94.184195"
         id="path1967"
         inkscape:connector-curvature="0" />
      <rect
         style="opacity:1;vector-effect:none;fill:#404040;fill-opacity:1;fill-rule:evenodd;stroke:none;stroke-width:0.26020974px;stroke-linecap:butt;stroke-linejoin:miter;stroke-miterlimit:4;stroke-dasharray:none;stroke-dashoffset:0;stroke-opacity:1"
         id="rect1969"
         width="209.72638"
         height="35.172672"
         x="76.89344"
         y="62.952076"
         ry="3.3676085" />
      <rect
         style="display:inline;opacity:1;vector-effect:none;fill:#333333;fill-opacity:1;fill-rule:evenodd;stroke:none;stroke-width:0.29901999px;stroke-linecap:butt;stroke-linejoin:miter;stroke-miterlimit:4;stroke-dasharray:none;stroke-dashoffset:0;stroke-opacity:1"
         id="rect1971"
         width="199.09724"
         height="1.5641335"
         x="80.909042"
         y="61.640503"
         ry="0.78206676" />
      <path
         style="opacity:1;vector-effect:none;fill:#404040;fill-opacity:1;fill-rule:evenodd;stroke:#333333;stroke-width:1.58749998;stroke-linecap:round;stroke-linejoin:round;stroke-miterlimit:4;stroke-dasharray:none;stroke-dashoffset:0;stroke-opacity:1"
         d="m 256.0501,43.494854 h 41.49519 c 1.51354,0 2.73202,1.218484 2.73202,2.732027 v 18.109116 c 0,1.513543 -1.21848,2.732027 -2.73202,2.732027 h -26.57394 l 0.28063,15.060638 -15.20188,0.09354 c -1.51352,0.0093 -2.73203,-16.372666 -2.73203,-17.886209 V 46.226881 c 0,-1.513543 1.21848,-2.732027 2.73203,-2.732027 z"
         id="path1973"
         inkscape:connector-curvature="0"
         sodipodi:nodetypes="sssssccssss" />
      <path
         sodipodi:nodetypes="sssssssss"
         inkscape:connector-curvature="0"
         id="path1975"
         d="M 439.27256,60.473149 H 454.029 c 0.45998,0 1.13535,0.212237 1.481,0.515736 3.62085,3.179327 7.79979,6.172624 12.54317,8.977771 0.39592,0.234141 0.28037,0.515734 -0.17961,0.515734 h -13.54037 c -0.45998,0 -1.13182,-0.216291 -1.48098,-0.515734 -3.89347,-3.339068 -8.91123,-6.115981 -13.75925,-8.977771 -0.39611,-0.233828 -0.28038,-0.515736 0.1796,-0.515736 z"
         style="display:inline;opacity:1;vector-effect:none;fill:#4d4d4d;fill-opacity:1;fill-rule:evenodd;stroke:none;stroke-width:0.26458332px;stroke-linecap:butt;stroke-linejoin:miter;stroke-miterlimit:4;stroke-dasharray:none;stroke-dashoffset:0;stroke-opacity:1" />
      <rect
         ry="0.72794384"
         y="48.824146"
         x="388.89572"
         height="14.025064"
         width="51.407856"
         id="rect1977"
         style="display:inline;opacity:1;vector-effect:none;fill:#4d4d4d;fill-opacity:1;fill-rule:evenodd;stroke:none;stroke-width:0.25526407px;stroke-linecap:butt;stroke-linejoin:miter;stroke-miterlimit:4;stroke-dasharray:none;stroke-dashoffset:0;stroke-opacity:1" />
      <path
         sodipodi:nodetypes="sssssssss"
         inkscape:connector-curvature="0"
         id="path1979"
         d="m 311.99311,40.88575 h 69.65482 c 1.96449,0 3.546,1.89512 3.546,4.249147 v 10.86939 c 0,2.354027 -0.17379,4.249147 -2.13828,4.249147 h -72.36598 c -1.96448,0 -2.24256,-1.89512 -2.24256,-4.249147 v -10.86939 c 0,-2.354027 1.58152,-4.249147 3.546,-4.249147 z"
         style="display:inline;opacity:1;vector-effect:none;fill:#c87137;fill-opacity:1;fill-rule:evenodd;stroke:none;stroke-width:0.28870058px;stroke-linecap:butt;stroke-linejoin:miter;stroke-miterlimit:4;stroke-dasharray:none;stroke-dashoffset:0;stroke-opacity:1" />
      <path
         sodipodi:nodetypes="sssssssss"
         inkscape:connector-curvature="0"
         id="path1981"
         d="m 305.18473,40.722363 h 0.92198 c 1.10283,0 1.99066,0.896013 1.99066,2.008998 v 16.410334 c 0,1.112983 -0.88783,0.972775 -1.99066,0.972775 h -0.92198 c -1.10284,0 -1.99066,0.140208 -1.99066,-0.972775 V 42.731361 c 0,-1.112985 0.88782,-2.008998 1.99066,-2.008998 z"
         style="display:inline;opacity:1;vector-effect:none;fill:#404040;fill-opacity:1;fill-rule:evenodd;stroke:none;stroke-width:0.33531311px;stroke-linecap:butt;stroke-linejoin:miter;stroke-miterlimit:4;stroke-dasharray:none;stroke-dashoffset:0;stroke-opacity:1" />
      <path
         sodipodi:nodetypes="sccccsccssss"
         inkscape:connector-curvature="0"
         id="path1983"
         d="m 389.53508,68.572188 h 156.09624 l 2.65441,-1.381717 H 558.4272 L 570.68876,78.9785 c 0.8849,0.807048 0.33296,2.182971 -1.72971,2.182971 h -20.38199 l -2.872,-1.38172 H 389.53508 c -0.97016,0 -1.75118,-0.781027 -1.75118,-1.751182 V 70.32337 c 0,-0.970155 0.78102,-1.751182 1.75118,-1.751182 z"
         style="display:inline;opacity:1;vector-effect:none;fill:#4d4d4d;fill-opacity:1;fill-rule:evenodd;stroke:none;stroke-width:0.26458332px;stroke-linecap:butt;stroke-linejoin:miter;stroke-miterlimit:4;stroke-dasharray:none;stroke-dashoffset:0;stroke-opacity:1" />
      <rect
         ry="0.78206676"
         y="76.986336"
         x="389.6778"
         height="1.5641335"
         width="155.87976"
         id="rect1985"
         style="display:inline;opacity:1;vector-effect:none;fill:#333333;fill-opacity:1;fill-rule:evenodd;stroke:none;stroke-width:0.26458332px;stroke-linecap:butt;stroke-linejoin:miter;stroke-miterlimit:4;stroke-dasharray:none;stroke-dashoffset:0;stroke-opacity:1" />
      <rect
         style="display:inline;opacity:1;vector-effect:none;fill:#333333;fill-opacity:1;fill-rule:evenodd;stroke:none;stroke-width:0.09649558px;stroke-linecap:butt;stroke-linejoin:miter;stroke-miterlimit:4;stroke-dasharray:none;stroke-dashoffset:0;stroke-opacity:1"
         id="rect1987"
         width="20.733833"
         height="1.5641335"
         x="548.28571"
         y="78.654747"
         ry="0.78206676" />
      <rect
         style="display:inline;opacity:1;vector-effect:none;fill:#333333;fill-opacity:1;fill-rule:evenodd;stroke:none;stroke-width:0.13496332px;stroke-linecap:butt;stroke-linejoin:miter;stroke-miterlimit:4;stroke-dasharray:none;stroke-dashoffset:0;stroke-opacity:1"
         id="rect1989"
         width="40.559845"
         height="1.5641335"
         x="389.6778"
         y="60.562935"
         ry="0.78206676" />
      <rect
         ry="1.0770028"
         y="50.018978"
         x="389.6778"
         height="2.1540055"
         width="40.559845"
         id="rect1991"
         style="display:inline;opacity:1;vector-effect:none;fill:#808080;fill-opacity:1;fill-rule:evenodd;stroke:none;stroke-width:0.1583807px;stroke-linecap:butt;stroke-linejoin:miter;stroke-miterlimit:4;stroke-dasharray:none;stroke-dashoffset:0;stroke-opacity:1" />
      <rect
         style="display:inline;opacity:1;vector-effect:none;fill:#808080;fill-opacity:1;fill-rule:evenodd;stroke:none;stroke-width:0.30990294px;stroke-linecap:butt;stroke-linejoin:miter;stroke-miterlimit:4;stroke-dasharray:none;stroke-dashoffset:0;stroke-opacity:1"
         id="rect1993"
         width="155.28989"
         height="2.1540055"
         x="389.6778"
         y="69.927147"
         ry="1.0770028" />
      <g
         transform="matrix(1,0,0,1.0086883,-2.9201036e-6,-0.77858761)"
         style="display:inline"
         id="g1999">
        <path
           sodipodi:nodetypes="sssccssssss"
           inkscape:connector-curvature="0"
           id="path1995"
           d="m 387.25138,43.933924 h 0.73571 c 0.88002,0 1.58848,0.798908 1.58848,1.791274 V 60.71156 l 1.04276,0.990618 v 27.038546 c 0,0.992364 -0.70846,0.867352 -1.58848,0.867352 h -1.77847 c -0.88004,0 -1.58849,0.125012 -1.58849,-0.867352 V 45.725198 c 0,-0.992366 0.70845,-1.791274 1.58849,-1.791274 z"
           style="opacity:1;vector-effect:none;fill:#404040;fill-opacity:1;fill-rule:evenodd;stroke:none;stroke-width:0.28283611px;stroke-linecap:butt;stroke-linejoin:miter;stroke-miterlimit:4;stroke-dasharray:none;stroke-dashoffset:0;stroke-opacity:1" />
        <path
           style="opacity:1;vector-effect:none;fill:#333333;fill-opacity:1;fill-rule:evenodd;stroke:none;stroke-width:0.27862766px;stroke-linecap:butt;stroke-linejoin:miter;stroke-miterlimit:4;stroke-dasharray:none;stroke-dashoffset:0;stroke-opacity:1"
           d="m 390.19042,81.106959 v 7.306906 c 0,0.977599 -0.17654,0.854447 -1.04346,0.854447 h -1.75201 c -0.86694,0 -1.30416,0.123152 -1.30416,-0.854447 v -7.675576 c 1.59115,0.532408 2.43898,0.809205 4.09963,0.36867 z"
           id="path1997"
           inkscape:connector-curvature="0"
           sodipodi:nodetypes="csssscc" />
      </g>
      <rect
         ry="1.0770028"
         y="68.583534"
         x="548.34698"
         height="2.1540055"
         width="10.1932"
         id="rect2001"
         style="display:inline;opacity:1;vector-effect:none;fill:#808080;fill-opacity:1;fill-rule:evenodd;stroke:none;stroke-width:0.07939798px;stroke-linecap:butt;stroke-linejoin:miter;stroke-miterlimit:4;stroke-dasharray:none;stroke-dashoffset:0;stroke-opacity:1" />
      <path
         style="display:inline;opacity:1;vector-effect:none;fill:#a05a2c;fill-opacity:1;fill-rule:evenodd;stroke:none;stroke-width:0.28870058px;stroke-linecap:butt;stroke-linejoin:miter;stroke-miterlimit:4;stroke-dasharray:none;stroke-dashoffset:0;stroke-opacity:1"
         d="m 311.99311,57.259578 h 69.65482 c 1.96449,0 3.546,-4.968656 3.546,-2.614629 v 1.359338 c 0,2.354027 -0.17379,4.249147 -2.13828,4.249147 h -72.36598 c -1.96448,0 -2.24256,-1.89512 -2.24256,-4.249147 v -1.359338 c 0,-2.354027 1.58152,2.614629 3.546,2.614629 z"
         id="path2003"
         inkscape:connector-curvature="0"
         sodipodi:nodetypes="sssssssss" />
      <path
         inkscape:connector-curvature="0"
         id="path2005"
         d="m 534.39478,35.760606 c -1.29109,0 -2.09383,1.061418 -2.33061,2.330608 l -5.60379,30.038477 v 11.871108 l 5.97275,1.28261 c 1.22672,0.40258 1.039,2.330606 2.33008,2.330606 h 8.39021 c 1.29108,0 2.33061,-1.039518 2.33061,-2.330606 V 68.129691 l -2.80192,-30.038477 c -0.11991,-1.285507 -1.03952,-2.330608 -2.33061,-2.330608 z m -2.06293,19.80706 h 7.49411 c 0.83939,0 1.42486,0.680641 1.51517,1.515153 l 0.45939,4.245737 c 0.0982,0.907378 -0.73477,1.647444 -1.64745,1.647444 h -8.14832 c -0.91268,0 -1.74564,-0.740066 -1.64746,-1.647444 l 0.4594,-4.245737 c 0.0903,-0.834512 0.67577,-1.515153 1.51516,-1.515153 z"
         style="display:inline;opacity:1;vector-effect:none;fill:#404040;fill-opacity:1;fill-rule:evenodd;stroke:none;stroke-width:0.26458332px;stroke-linecap:butt;stroke-linejoin:miter;stroke-miterlimit:4;stroke-dasharray:none;stroke-dashoffset:0;stroke-opacity:1" />
      <rect
         ry="0.56709236"
         y="78.257874"
         x="526.98676"
         height="1.5641335"
         width="17.856489"
         id="rect2007"
         style="display:inline;opacity:1;vector-effect:none;fill:#333333;fill-opacity:1;fill-rule:evenodd;stroke:none;stroke-width:0.08955003px;stroke-linecap:butt;stroke-linejoin:miter;stroke-miterlimit:4;stroke-dasharray:none;stroke-dashoffset:0;stroke-opacity:1" />
      <path
         sodipodi:nodetypes="sccssss"
         inkscape:connector-curvature="0"
         id="path2009"
         d="m 534.0196,81.565162 h 11.01723 c -0.14521,0.630311 -0.0726,1.51675 -1.75286,1.564134 h -8.78481 c -0.31416,0 -0.43543,-0.281839 -0.56709,-0.567092 l -0.19844,-0.42995 c -0.13164,-0.285253 -0.0282,-0.567092 0.28597,-0.567092 z"
         style="display:inline;opacity:1;vector-effect:none;fill:#333333;fill-opacity:1;fill-rule:evenodd;stroke:none;stroke-width:0.06674233px;stroke-linecap:butt;stroke-linejoin:miter;stroke-miterlimit:4;stroke-dasharray:none;stroke-dashoffset:0;stroke-opacity:1" />
      <rect
         ry="0.51573664"
         y="68.103035"
         x="527.79602"
         height="1.0314733"
         width="16.376549"
         id="rect2011"
         style="display:inline;opacity:1;vector-effect:none;fill:#808080;fill-opacity:1;fill-rule:evenodd;stroke:none;stroke-width:0.06964196px;stroke-linecap:butt;stroke-linejoin:miter;stroke-miterlimit:4;stroke-dasharray:none;stroke-dashoffset:0;stroke-opacity:1" />
      <rect
         style="display:inline;opacity:1;vector-effect:none;fill:#808080;fill-opacity:1;fill-rule:evenodd;stroke:none;stroke-width:0.03998968px;stroke-linecap:butt;stroke-linejoin:miter;stroke-miterlimit:4;stroke-dasharray:none;stroke-dashoffset:0;stroke-opacity:1"
         id="rect2013"
         width="7.9107866"
         height="0.70406812"
         x="533.31512"
         y="36.859226"
         ry="0.35203406" />
      <circle
         r="2.8442709"
         cy="43.727604"
         cx="537.43488"
         id="circle2015"
         style="display:inline;opacity:1;vector-effect:none;fill:#4d4d4d;fill-opacity:1;fill-rule:evenodd;stroke:#333333;stroke-width:0.52916676;stroke-linecap:butt;stroke-linejoin:miter;stroke-miterlimit:4;stroke-dasharray:none;stroke-dashoffset:0;stroke-opacity:1" />
      <path
         sodipodi:nodetypes="ssscsscssss"
         inkscape:connector-curvature="0"
         id="path2017"
         d="m 431.0937,47.56406 h 19.07354 c 0.19502,0 0.25899,0.180635 0.35203,0.352033 l 6.95156,12.804764 1.60775,2.96148 c 0.0931,0.171412 -0.157,0.352036 -0.35203,0.352036 h -16.244 -11.38885 c -0.19502,0 -0.35203,-0.157009 -0.35203,-0.352036 V 47.916093 c 0,-0.195027 0.15701,-0.352033 0.35203,-0.352033 z"
         style="display:inline;opacity:1;vector-effect:none;fill:#404040;fill-opacity:1;fill-rule:evenodd;stroke:none;stroke-width:0.26458332px;stroke-linecap:butt;stroke-linejoin:miter;stroke-miterlimit:4;stroke-dasharray:none;stroke-dashoffset:0;stroke-opacity:1" />
      <path
         inkscape:connector-curvature="0"
         id="path2019"
         d="m 450.81383,66.746352 h 20.70983 c 0.56628,0 1.02217,0.45589 1.02217,1.022175 v 12.342368 c 0,0.566285 -0.45589,1.022175 -1.02217,1.022175 h -20.70983 c -0.56628,0 -1.02217,-0.45589 -1.02217,-1.022175 V 67.768527 c 0,-0.566285 0.45589,-1.022175 1.02217,-1.022175 z"
         style="display:inline;opacity:1;vector-effect:none;fill:#404040;fill-opacity:1;fill-rule:evenodd;stroke:none;stroke-width:0.26739466px;stroke-linecap:butt;stroke-linejoin:miter;stroke-miterlimit:4;stroke-dasharray:none;stroke-dashoffset:0;stroke-opacity:1" />
      <path
         sodipodi:nodetypes="sssssssss"
         inkscape:connector-curvature="0"
         id="path2021"
         d="m 431.39911,60.795371 h 23.70437 c 0.31681,0 0.42389,0.291733 0.57186,0.571858 l 0.85991,1.627784 c 0.14796,0.280122 -0.25506,0.571854 -0.57186,0.571854 h -24.31623 c -0.31681,0 -0.57186,-0.255048 -0.57186,-0.571854 v -1.627784 c 0,-0.31681 0.007,-0.571858 0.32381,-0.571858 z"
         style="display:inline;opacity:1;vector-effect:none;fill:#333333;fill-opacity:1;fill-rule:evenodd;stroke:none;stroke-width:0.11879145px;stroke-linecap:butt;stroke-linejoin:miter;stroke-miterlimit:4;stroke-dasharray:none;stroke-dashoffset:0;stroke-opacity:1" />
      <rect
         ry="0.75894707"
         y="78.390167"
         x="450.38989"
         height="2.0933001"
         width="21.362219"
         id="rect2023"
         style="display:inline;opacity:1;vector-effect:none;fill:#333333;fill-opacity:1;fill-rule:evenodd;stroke:none;stroke-width:0.11331037px;stroke-linecap:butt;stroke-linejoin:miter;stroke-miterlimit:4;stroke-dasharray:none;stroke-dashoffset:0;stroke-opacity:1" />
      <rect
         style="display:inline;opacity:1;vector-effect:none;fill:#808080;fill-opacity:1;fill-rule:evenodd;stroke:none;stroke-width:0.07881287px;stroke-linecap:butt;stroke-linejoin:miter;stroke-miterlimit:4;stroke-dasharray:none;stroke-dashoffset:0;stroke-opacity:1"
         id="rect2025"
         width="20.973686"
         height="1.0314733"
         x="450.80902"
         y="67.822403"
         ry="0.51573664" />
      <rect
         ry="0.51573664"
         y="48.50782"
         x="431.56058"
         height="1.0314733"
         width="18.526289"
         id="rect2027"
         style="display:inline;opacity:1;vector-effect:none;fill:#808080;fill-opacity:1;fill-rule:evenodd;stroke:none;stroke-width:0.07407198px;stroke-linecap:butt;stroke-linejoin:miter;stroke-miterlimit:4;stroke-dasharray:none;stroke-dashoffset:0;stroke-opacity:1" />
      <path
         style="opacity:1;vector-effect:none;fill:#333333;fill-opacity:1;fill-rule:evenodd;stroke:none;stroke-width:0.23833463px;stroke-linecap:butt;stroke-linejoin:miter;stroke-miterlimit:4;stroke-dasharray:none;stroke-dashoffset:0;stroke-opacity:1"
         d="m 125.79506,67.347982 58.57852,-4.723978 c 3.04786,-0.245789 5.78391,0.829556 6.1975,3.083353 0.4136,2.253796 -1.76482,4.217084 -4.70437,5.053096 l -56.4968,16.067801 c -7.03813,2.001657 -13.84781,-1.986118 -14.83804,-7.382154 -0.99023,-5.396035 3.96573,-11.509625 11.26319,-12.098118 z"
         id="path2029"
         inkscape:connector-curvature="0"
         sodipodi:nodetypes="sssssss" />
      <path
         sodipodi:nodetypes="sssssccsss"
         inkscape:connector-curvature="0"
         id="path2031"
         d="m 126.32861,68.515232 57.05601,-5.003293 c 2.80394,-0.245881 5.37094,0.342667 5.75166,2.417317 0.32006,1.744095 -0.97787,2.976247 -3.00903,3.775434 -0.38496,0.151467 -0.9947,-1.696992 -1.42631,-1.576092 l -18.25687,5.00543 -0.5609,2.305654 -36.12356,10.11872 c -6.48596,1.816809 -12.84063,-1.360525 -13.75215,-6.327646 -0.91152,-4.96712 3.60769,-10.126815 10.32115,-10.715524 z"
         style="opacity:1;vector-effect:none;fill:#404040;fill-opacity:1;fill-rule:evenodd;stroke:none;stroke-width:0.21939011px;stroke-linecap:butt;stroke-linejoin:miter;stroke-miterlimit:4;stroke-dasharray:none;stroke-dashoffset:0;stroke-opacity:1" />
      <circle
         style="display:inline;opacity:1;vector-effect:none;fill:#4d4d4d;fill-opacity:1;fill-rule:evenodd;stroke:#333333;stroke-width:1.09441352;stroke-linecap:butt;stroke-linejoin:miter;stroke-miterlimit:4;stroke-dasharray:none;stroke-dashoffset:0;stroke-opacity:1"
         id="circle2033"
         cx="125.18864"
         cy="77.637428"
         r="5.8824711" />
      <circle
         r="3.2197495"
         cy="72.21347"
         cx="89.999062"
         id="circle2035"
         style="display:inline;opacity:1;vector-effect:none;fill:#4d4d4d;fill-opacity:1;fill-rule:evenodd;stroke:#333333;stroke-width:0.59902334;stroke-linecap:butt;stroke-linejoin:miter;stroke-miterlimit:4;stroke-dasharray:none;stroke-dashoffset:0;stroke-opacity:1" />
      <circle
         style="display:inline;opacity:1;vector-effect:none;fill:#4d4d4d;fill-opacity:1;fill-rule:evenodd;stroke:#333333;stroke-width:0.59902334;stroke-linecap:butt;stroke-linejoin:miter;stroke-miterlimit:4;stroke-dasharray:none;stroke-dashoffset:0;stroke-opacity:1"
         id="circle2037"
         cx="108.51989"
         cy="81.473885"
         r="3.2197495" />
      <circle
         r="3.2197495"
         cy="84.913467"
         cx="230.22812"
         id="circle2039"
         style="display:inline;opacity:1;vector-effect:none;fill:#4d4d4d;fill-opacity:1;fill-rule:evenodd;stroke:#333333;stroke-width:0.59902334;stroke-linecap:butt;stroke-linejoin:miter;stroke-miterlimit:4;stroke-dasharray:none;stroke-dashoffset:0;stroke-opacity:1" />
      <circle
         style="display:inline;opacity:1;vector-effect:none;fill:#4d4d4d;fill-opacity:1;fill-rule:evenodd;stroke:#333333;stroke-width:0.59902334;stroke-linecap:butt;stroke-linejoin:miter;stroke-miterlimit:4;stroke-dasharray:none;stroke-dashoffset:0;stroke-opacity:1"
         id="circle2041"
         cx="247.29384"
         cy="71.55201"
         r="3.2197495" />
      <circle
         r="3.2197495"
         cy="71.55201"
         cx="259.86154"
         id="circle2043"
         style="display:inline;opacity:1;vector-effect:none;fill:#4d4d4d;fill-opacity:1;fill-rule:evenodd;stroke:#333333;stroke-width:0.59902334;stroke-linecap:butt;stroke-linejoin:miter;stroke-miterlimit:4;stroke-dasharray:none;stroke-dashoffset:0;stroke-opacity:1" />
      <path
         style="opacity:1;vector-effect:none;fill:#333333;fill-opacity:1;fill-rule:evenodd;stroke:none;stroke-width:0.04426607px;stroke-linecap:butt;stroke-linejoin:miter;stroke-miterlimit:4;stroke-dasharray:none;stroke-dashoffset:0;stroke-opacity:1"
         d="m 207.80447,79.415878 h 13.29921 c 1.86123,0 3.35963,1.498397 3.35963,3.359635 V 86.7203 c 0,1.861238 -1.4984,3.359635 -3.35963,3.359635 h -13.29921 c -1.86123,0 -3.35963,-1.498397 -3.35963,-3.359635 v -3.944787 c 0,-1.861238 1.4984,-3.359635 3.35963,-3.359635 z"
         id="path2045"
         inkscape:connector-curvature="0" />
      <rect
         style="opacity:1;vector-effect:none;fill:#333333;fill-opacity:1;fill-rule:evenodd;stroke:none;stroke-width:0.01199677px;stroke-linecap:butt;stroke-linejoin:miter;stroke-miterlimit:4;stroke-dasharray:none;stroke-dashoffset:0;stroke-opacity:1"
         id="rect2047"
         width="10.493473"
         height="1.4942428"
         x="186.76736"
         y="81.038231"
         ry="0.47075054" />
      <rect
         ry="0.47075054"
         y="90.330948"
         x="186.76736"
         height="1.4942428"
         width="10.493473"
         id="rect2049"
         style="opacity:1;vector-effect:none;fill:#333333;fill-opacity:1;fill-rule:evenodd;stroke:none;stroke-width:0.01199677px;stroke-linecap:butt;stroke-linejoin:miter;stroke-miterlimit:4;stroke-dasharray:none;stroke-dashoffset:0;stroke-opacity:1" />
      <path
         id="path2051"
         d="m 208.56276,80.553083 h 11.78263 c 1.64899,0 2.97652,1.327527 2.97652,2.976519 v 1.156335 c 0,1.648992 -1.32753,2.976519 -2.97652,2.976519 h -11.78263 c -1.64899,0 -2.97652,-1.327527 -2.97652,-2.976519 v -1.156335 c 0,-1.648992 1.32753,-2.976519 2.97652,-2.976519 z"
         style="opacity:1;vector-effect:none;fill:#404040;fill-opacity:1;fill-rule:evenodd;stroke:none;stroke-width:0.03921819px;stroke-linecap:butt;stroke-linejoin:miter;stroke-miterlimit:4;stroke-dasharray:none;stroke-dashoffset:0;stroke-opacity:1"
         inkscape:connector-curvature="0"
         sodipodi:nodetypes="sssssssss" />
      <circle
         r="3.3187566"
         cy="38.671177"
         cx="255.60106"
         id="circle2053"
         style="display:inline;opacity:1;vector-effect:none;fill:#333333;fill-opacity:1;fill-rule:evenodd;stroke:#333333;stroke-width:0.79374999;stroke-linecap:butt;stroke-linejoin:miter;stroke-miterlimit:4;stroke-dasharray:1.5875, 1.5875;stroke-dashoffset:0;stroke-opacity:1" />
      <g
         aria-label="B A"
         style="font-style:normal;font-variant:normal;font-weight:normal;font-stretch:normal;font-size:10.58333302px;line-height:11.28888893px;font-family:sans-serif;font-variant-ligatures:normal;font-variant-position:normal;font-variant-caps:normal;font-variant-numeric:normal;font-variant-alternates:normal;font-feature-settings:normal;text-indent:0;text-align:start;text-decoration:none;text-decoration-line:none;text-decoration-style:solid;text-decoration-color:#000000;letter-spacing:0.69850004px;word-spacing:0px;text-transform:none;writing-mode:lr-tb;direction:ltr;text-orientation:mixed;dominant-baseline:auto;baseline-shift:baseline;text-anchor:start;white-space:normal;shape-padding:0;opacity:1;vector-effect:none;fill:#333333;fill-opacity:1;stroke:none;stroke-width:0.26458332px;stroke-linecap:butt;stroke-linejoin:miter;stroke-miterlimit:4;stroke-dasharray:none;stroke-dashoffset:0;stroke-opacity:1"
         id="g2059">
        <path
           d="m 198.47402,83.191917 h 2.27379 l 0.54138,-1.392819 v -1.225484 h -1.8899 v -1.442036 h -0.92527 z m 0.92527,-0.812068 v -0.994168 h 0.96463 v 0.413417 l -0.23623,0.580751 z"
           style="font-style:normal;font-variant:normal;font-weight:normal;font-stretch:normal;font-family:Bolshevik;-inkscape-font-specification:Bolshevik;fill:#333333;fill-opacity:1;stroke-width:0.12304057px"
           id="path2055"
           inkscape:connector-curvature="0" />
        <path
           d="m 198.78947,93.127488 h 0.94613 v -1.22293 h 0.9864 v 1.22293 h 0.94614 v -4.151925 h -2.32508 l -0.55359,1.424236 z m 0.94613,-2.053315 v -0.674374 l 0.24157,-0.593851 h 0.74483 v 1.268225 z"
           style="font-style:normal;font-variant:normal;font-weight:normal;font-stretch:normal;font-family:Bolshevik;-inkscape-font-specification:Bolshevik;fill:#333333;fill-opacity:1;stroke-width:0.26458332px"
           id="path2057"
           inkscape:connector-curvature="0"
           sodipodi:nodetypes="cccccccccccccccc" />
      </g>
      <path
         sodipodi:nodetypes="sssssssss"
         inkscape:connector-curvature="0"
         style="opacity:1;vector-effect:none;fill:#404040;fill-opacity:1;fill-rule:evenodd;stroke:none;stroke-width:0.02430717px;stroke-linecap:butt;stroke-linejoin:miter;stroke-miterlimit:4;stroke-dasharray:none;stroke-dashoffset:0;stroke-opacity:1"
         d="m 246.47134,52.374958 h 3.16965 c 0.4436,0 0.80072,1.89569 0.80072,4.250426 v 1.651229 c 0,2.354737 -0.35712,4.250426 -0.80072,4.250426 h -3.16965 c -0.4436,0 -0.80072,-1.895689 -0.80072,-4.250426 v -1.651229 c 0,-2.354736 0.35712,-4.250426 0.80072,-4.250426 z"
         id="path2061" />
      <path
         id="path2063"
         d="m 247.69204,53.360189 h 1.45584 c 0.20375,0 0.36778,1.527747 0.36778,3.425442 v 1.330735 c 0,1.897696 -0.16403,3.425442 -0.36778,3.425442 h -1.45584 c -0.20375,0 -0.36778,-1.527746 -0.36778,-3.425442 v -1.330735 c 0,-1.897695 0.16403,-3.425442 0.36778,-3.425442 z"
         style="opacity:1;vector-effect:none;fill:#808080;fill-opacity:1;fill-rule:evenodd;stroke:none;stroke-width:0.01478866px;stroke-linecap:butt;stroke-linejoin:miter;stroke-miterlimit:4;stroke-dasharray:none;stroke-dashoffset:0;stroke-opacity:1"
         inkscape:connector-curvature="0"
         sodipodi:nodetypes="sssssssss" />
      <rect
         style="display:inline;opacity:1;vector-effect:none;fill:#808080;fill-opacity:1;fill-rule:evenodd;stroke:none;stroke-width:0.18469021px;stroke-linecap:butt;stroke-linejoin:miter;stroke-miterlimit:4;stroke-dasharray:none;stroke-dashoffset:0;stroke-opacity:1"
         id="rect2065"
         width="158.22629"
         height="0.75084025"
         x="93.42308"
         y="48.788452"
         ry="0.37542012" />
      <path
         sodipodi:nodetypes="sssssccsss"
         inkscape:connector-curvature="0"
         id="path2067"
         d="m 285.92603,61.962868 h 93.30315 c 3.22859,0 5.82777,3.116746 5.82777,6.988225 v 19.265831 c 0,3.871476 -2.59918,6.988225 -5.82777,6.988225 h -66.77073 c 0,0 -5.74964,7.464691 -26.53242,7.464691 -6.74311,-0.20243 -5.82776,-3.116745 -5.82776,-6.988221 V 68.951093 c 0,-3.871479 2.59918,-6.988225 5.82776,-6.988225 z"
         style="display:inline;opacity:1;vector-effect:none;fill:#c87137;fill-opacity:1;fill-rule:evenodd;stroke:none;stroke-width:0.25891992px;stroke-linecap:butt;stroke-linejoin:miter;stroke-miterlimit:4;stroke-dasharray:none;stroke-dashoffset:0;stroke-opacity:1" />
      <path
         style="display:inline;opacity:1;vector-effect:none;fill:#a05a2c;fill-opacity:1;fill-rule:evenodd;stroke:none;stroke-width:0.25891992px;stroke-linecap:butt;stroke-linejoin:miter;stroke-miterlimit:4;stroke-dasharray:none;stroke-dashoffset:0;stroke-opacity:1"
         d="m 385.05695,82.876913 v 5.340011 c 0,3.871476 -2.59918,6.988225 -5.82777,6.988225 h -66.77073 c 0,0 -5.74964,7.464691 -26.53242,7.464691 -6.74311,-0.20243 -5.82776,-3.116745 -5.82776,-6.988221 V 82.876913 c 8.93623,5.279903 104.68342,0.04609 104.95868,0 z"
         id="path2069"
         inkscape:connector-curvature="0"
         sodipodi:nodetypes="cssccscc" />
      <rect
         style="opacity:1;vector-effect:none;fill:#404040;fill-opacity:1;fill-rule:evenodd;stroke:none;stroke-width:0.27341858px;stroke-linecap:butt;stroke-linejoin:miter;stroke-miterlimit:4;stroke-dasharray:none;stroke-dashoffset:0;stroke-opacity:1"
         id="rect2071"
         width="14.816667"
         height="22.886457"
         x="284.55936"
         y="34.930206"
         ry="3.8019328" />
      <rect
         style="display:inline;opacity:1;vector-effect:none;fill:#333333;fill-opacity:1;fill-rule:evenodd;stroke:none;stroke-width:0.33447126px;stroke-linecap:butt;stroke-linejoin:miter;stroke-miterlimit:4;stroke-dasharray:none;stroke-dashoffset:0;stroke-opacity:1"
         id="rect2073"
         width="155.87976"
         height="2.4995768"
         x="389.14862"
         y="82.278"
         ry="1.2497884" />
      <path
         style="fill:none;fill-opacity:1;fill-rule:evenodd;stroke:#404040;stroke-width:2.11666656;stroke-linecap:round;stroke-linejoin:miter;stroke-miterlimit:4;stroke-dasharray:none;stroke-opacity:1"
         d="m 257.62109,210.56503 21.14102,-26.75368"
         id="path2075"
         inkscape:connector-curvature="0" />
      <path
         inkscape:connector-curvature="0"
         id="path2077"
         d="m 265.10464,216.27123 19.92494,-27.78267"
         style="fill:none;fill-opacity:1;fill-rule:evenodd;stroke:#404040;stroke-width:2.11666656;stroke-linecap:round;stroke-linejoin:miter;stroke-miterlimit:4;stroke-dasharray:none;stroke-opacity:1"
         sodipodi:nodetypes="cc" />
      <path
         inkscape:connector-curvature="0"
         id="path2079"
         d="M 265.02942,189.53065 C 247.52196,175.56318 221.85438,144.91918 212.15854,100.93107"
         style="fill:none;fill-opacity:1;fill-rule:evenodd;stroke:#404040;stroke-width:2.11666656;stroke-linecap:round;stroke-linejoin:miter;stroke-miterlimit:4;stroke-dasharray:none;stroke-opacity:1"
         sodipodi:nodetypes="cc" />
      <path
         sodipodi:nodetypes="cc"
         style="fill:none;fill-opacity:1;fill-rule:evenodd;stroke:#404040;stroke-width:2.11666656;stroke-linecap:round;stroke-linejoin:miter;stroke-miterlimit:4;stroke-dasharray:none;stroke-opacity:1"
         d="m 261.08336,194.42544 c -18.38069,-9.99611 -48.73112,-50.39855 -56.44275,-93.49437"
         id="path2081"
         inkscape:connector-curvature="0" />
      <path
         inkscape:connector-curvature="0"
         id="path2083"
         d="m 256.69504,200.37857 c -24.01519,-13.95804 -52.1043,-57.34505 -58.824,-99.43097"
         style="fill:none;fill-opacity:1;fill-rule:evenodd;stroke:#404040;stroke-width:2.11666656;stroke-linecap:round;stroke-linejoin:miter;stroke-miterlimit:4;stroke-dasharray:none;stroke-opacity:1"
         sodipodi:nodetypes="cc" />
      <path
         style="opacity:1;vector-effect:none;fill:#404040;fill-opacity:1;fill-rule:evenodd;stroke:none;stroke-width:0.29624528px;stroke-linecap:butt;stroke-linejoin:miter;stroke-miterlimit:4;stroke-dasharray:none;stroke-dashoffset:0;stroke-opacity:1"
         d="m 170.14888,94.064583 h 5.97566 c 2.83373,0 5.11503,2.281307 5.11503,5.115037 v 14.77305 c 0,2.83373 -2.2813,5.11504 -5.11503,5.11504 h -5.97566 c -2.83373,0 -5.11504,0.36452 -5.11504,-2.46921 V 99.17962 c 0,-2.83373 2.28131,-5.115037 5.11504,-5.115037 z"
         id="path2085"
         inkscape:connector-curvature="0"
         sodipodi:nodetypes="sssssssss" />
      <circle
         r="1.6463231"
         cy="114.81139"
         cx="174.66573"
         id="circle2087"
         style="display:inline;opacity:1;vector-effect:none;fill:#4d4d4d;fill-opacity:1;fill-rule:evenodd;stroke:#333333;stroke-width:0.5291667;stroke-linecap:butt;stroke-linejoin:miter;stroke-miterlimit:4;stroke-dasharray:none;stroke-dashoffset:0;stroke-opacity:1" />
      <path
         style="opacity:1;vector-effect:none;fill:none;fill-opacity:1;fill-rule:evenodd;stroke:#404040;stroke-width:3.17499995;stroke-linecap:butt;stroke-linejoin:miter;stroke-miterlimit:4;stroke-dasharray:none;stroke-dashoffset:0;stroke-opacity:1"
         d="m 132.29166,92.035954 h 28.17812 c 3.88435,0 7.01146,3.871808 7.01146,8.681186 v 14.03501 c 0,4.80938 -3.12711,8.68118 -7.01146,8.68118 h -28.17812 c -3.88435,0 -7.01146,-3.8718 -7.01146,-8.68118 v -14.03501 c 0,-4.809378 3.12711,-8.681186 7.01146,-8.681186 z"
         id="path2089"
         inkscape:connector-curvature="0"
         sodipodi:nodetypes="sssssssss" />
      <rect
         style="opacity:1;vector-effect:none;fill:#333333;fill-opacity:1;fill-rule:evenodd;stroke:none;stroke-width:0.01413258px;stroke-linecap:butt;stroke-linejoin:miter;stroke-miterlimit:4;stroke-dasharray:none;stroke-dashoffset:0;stroke-opacity:1"
         id="rect2091"
         width="14.562416"
         height="1.4942428"
         x="165.86528"
         y="98.136154"
         ry="0.47075054" />
      <path
         style="opacity:1;vector-effect:none;fill:#c87137;fill-opacity:1;fill-rule:evenodd;stroke:none;stroke-width:0.26458332px;stroke-linecap:butt;stroke-linejoin:miter;stroke-miterlimit:4;stroke-dasharray:none;stroke-dashoffset:0;stroke-opacity:1"
         d="m 84.581267,94.24265 h 35.512473 c 1.97881,0 4.14428,1.677652 3.57187,3.571873 l 0.17304,19.800207 c 0,0 -6.10807,1.4032 -7.07175,4.11752 -4.33377,12.20667 -18.446131,44.10644 -15.45839,46.25291 3.71787,3.72239 4.6489,12.65787 -4.787943,11.42961 -7.910053,-1.02954 -15.825421,-2.12262 -23.445253,-7.10937 -1.655758,-1.0836 -4.494753,-4.73795 -3.758964,-7.4072 3.485119,-12.64309 17.733841,-43.32376 14.312283,-55.50136 -0.556037,-1.97898 -2.75577,-1.95507 -2.712785,-6.68842 0.01482,-1.63153 0.09354,-4.893897 0.09354,-4.893897 0.03782,-1.978459 1.593056,-3.571873 3.571875,-3.571873 z"
         id="path2093"
         inkscape:connector-curvature="0"
         sodipodi:nodetypes="csscscsssssssc" />
      <rect
         ry="1.7233094"
         y="109.2014"
         x="79.57486"
         height="3.4466188"
         width="36.296406"
         id="rect2095"
         style="opacity:1;vector-effect:none;fill:#a05a2c;fill-opacity:1;fill-rule:evenodd;stroke:none;stroke-width:0.03388617px;stroke-linecap:butt;stroke-linejoin:miter;stroke-miterlimit:4;stroke-dasharray:none;stroke-dashoffset:0;stroke-opacity:1"
         transform="rotate(-3.3872771)" />
      <path
         sodipodi:nodetypes="ccsssscc"
         inkscape:connector-curvature="0"
         id="path2097"
         d="m 76.76983,163.00231 c -4.216477,9.99287 28.38902,17.71475 24.53868,4.98285 3.71787,3.72239 4.6489,12.65787 -4.787943,11.42961 -7.910053,-1.02954 -15.825421,-2.12262 -23.445253,-7.10937 -1.655758,-1.0836 -4.494754,-4.73795 -3.758964,-7.4072 2.161398,-7.84098 8.462718,-22.61961 12.121487,-35.61968 1.558761,-5.53847 2.637887,-10.75413 2.712911,-14.97297 10.906925,0.8323 12.738739,-7.36267 -7.380918,48.69676 z"
         style="opacity:1;vector-effect:none;fill:#a05a2c;fill-opacity:1;fill-rule:evenodd;stroke:none;stroke-width:0.26458332px;stroke-linecap:butt;stroke-linejoin:miter;stroke-miterlimit:4;stroke-dasharray:none;stroke-dashoffset:0;stroke-opacity:1" />
    </g>
  </g>
</svg>
