<?xml version="1.0" encoding="utf-8"?>
<!-- Generator: Adobe Illustrator 25.3.1, SVG Export Plug-In . SVG Version: 6.00 Build 0)  -->
<svg version="1.1" id="Layer_1" xmlns="http://www.w3.org/2000/svg" xmlns:xlink="http://www.w3.org/1999/xlink" x="0px" y="0px"
	 viewBox="0 0 450 450" style="enable-background:new 0 0 450 450;" xml:space="preserve">
<style type="text/css">
	.st0{clip-path:url(#SVGID_2_);}
	.st1{fill:#B6C9D6;}
	.st2{fill:#66798F;}
	.st3{fill:#36404D;}
	.st4{fill:#F5CE85;}
	.st5{fill:#BA9B48;}
	.st6{fill:#BAE0BD;}
	.st7{fill:#5E9C76;}
</style>
<g>
	<defs>
		<rect id="SVGID_1_" width="450" height="450"/>
	</defs>
	<clipPath id="SVGID_2_">
		<use xlink:href="#SVGID_1_"  style="overflow:visible;"/>
	</clipPath>
	<g class="st0">
		<g id="Group">
			<path class="st1" d="M72.4,444c-1.6,0-3.2-0.6-4.3-1.8L7.9,382c-1.1-1.1-1.8-2.7-1.8-4.3c0-1.6,0.6-3.2,1.8-4.3
				c1.1-1.1,2.7-1.8,4.3-1.8c1.6,0,3.2,0.6,4.3,1.8l5.2,5.2l54.8-32.9l20.6-20.6L125,353l-20.6,20.6l-32.9,54.8l5.2,5.2
				c1.1,1.1,1.8,2.7,1.8,4.3c0,1.6-0.6,3.2-1.8,4.3C75.6,443.3,74,444,72.4,444z"/>
			<path class="st2" d="M97.1,333.7l19.3,19.3l-15.7,15.7l-1.1,1.1l-0.8,1.3l-30.1,50.1l-4.9,8.2L14,379.5l6.7,6.7l8.2-4.9L79,351.3
				l1.3-0.8l1.1-1.1L97.1,333.7z M70.6,436.1l1.8,1.8L70.6,436.1z M97.1,316.5l-24.3,24.3l-50.1,30.1l-1.9-1.8
				c-4.8-4.8-12.5-4.8-17.2,0c-4.8,4.8-4.8,12.5,0,17.2l60.3,60.3c4.8,4.8,12.5,4.8,17.2,0c4.8-4.8,4.8-12.5,0-17.2l-1.8-1.8
				l30.1-50.1l24.3-24.3L97.1,316.5z"/>
			<path class="st3" d="M157.9,231.3c0-6.7,5.5-12.2,12.2-12.2s12.2,5.5,12.2,12.2c0,6.7-5.5,12.2-12.2,12.2S157.9,238,157.9,231.3z
				"/>
			<path class="st3" d="M231,158.2c0-6.7,5.5-12.2,12.2-12.2c6.7,0,12.2,5.5,12.2,12.2c0,6.7-5.5,12.2-12.2,12.2
				C236.4,170.4,231,165,231,158.2z"/>
			<path class="st4" d="M80.8,341.1l21-20.7l24.7-37l43.6-43.5l40.1,40.1l-44.4,44.4l-35.6,23.6l-21,20.9L80.8,341.1z"/>
			<path class="st5" d="M170.1,248.5l31.5,31.5l-39.2,39.2l-35.5,23.7l-1,0.7l-0.9,0.9l-15.8,15.8l-19.7-19.1l16.2-15.9l0.9-0.9
				l0.7-1l23.7-35.5L170.1,248.5z M170.1,231.3L121.4,280l-24.3,36.5l-25,24.7l37.2,36.2l24.3-24.3l36.5-24.3l48.7-48.7L170.1,231.3
				z"/>
			<path class="st3" d="M207.3,256.3c2.4-2.4,6.2-2.4,8.6,0l49.8,49.8c2.3,2.4,2.3,6.2-0.1,8.5c-2.3,2.3-6.1,2.4-8.5,0.1l-49.8-49.8
				c-1.1-1.1-1.8-2.7-1.8-4.3C205.5,259,206.2,257.4,207.3,256.3z M232.1,208.1c2.4-2.4,6.2-2.4,8.6,0l61.5,61.5
				c2.3,2.4,2.3,6.2-0.1,8.5c-2.3,2.3-6.1,2.4-8.5,0.1l-61.5-61.5C229.8,214.3,229.8,210.5,232.1,208.1z"/>
			<path class="st3" d="M287.5,195.6c0.8,0,2.4,0.2,3.8,1.6l24.5,24.6c1.4,1.4,1.6,2.9,1.6,3.7c0,1.2-0.4,2.4-1.3,3.3l-23.9,23.9
				c-0.9,0.8-2,1.3-3.2,1.3c-1.4,0-2.8-0.6-3.8-1.6l-24.5-24.6c-1-1-1.6-2.3-1.6-3.7c0-1.2,0.4-2.4,1.3-3.3l23.9-23.9
				C285.1,196,286.3,195.5,287.5,195.6z M287.5,183.4c-4.3,0-8.6,1.6-11.8,4.8l-23.9,23.9c-6.6,6.6-6.4,17.5,0.3,24.2l24.5,24.6
				c3.3,3.3,7.7,5.1,12.4,5.1c4.3,0,8.6-1.6,11.8-4.8l23.9-23.9c6.6-6.6,6.4-17.5-0.3-24.2l-24.5-24.6
				C296.6,185.2,292.1,183.4,287.5,183.4z M279,181.9c-2.4,2.4-6.2,2.4-8.6,0l-49.8-49.8c-2.4-2.4-2.4-6.2,0-8.6
				c2.4-2.4,6.2-2.4,8.6,0l49.8,49.8C281.3,175.7,281.3,179.5,279,181.9z"/>
			<path class="st1" d="M154.4,255.6l116.2-116.2l43.7-10.9l7.3,7.3l-10.9,43.7L194.5,295.7L154.4,255.6z"/>
			<path class="st2" d="M312.4,135.2l2.4,2.4l-9.7,38.7L194.5,287.1L163,255.6l110.7-110.7L312.4,135.2z M316.2,121.7l-48.7,12.2
				L145.8,255.6l48.7,48.7l121.7-121.7l12.2-48.7L316.2,121.7z"/>
			<path class="st6" d="M321.3,128.7c0.5-2.3,0.8-4.7,0.9-7c0-23.9,0-58.3,22.6-80.9c10.4-10.4,36-10.4,44.4-10.4
				c11.6,0,28.8-14.2,36.9-21.5l15,15.1c-7.4,8.3-21.5,25.4-21.5,36.9c0,12.7,0,34-10.4,44.4c-22.6,22.6-56.3,22.6-80.9,22.6
				C326,127.9,323.6,128.2,321.3,128.7z"/>
			<path class="st7" d="M425.8,17.3l3,3l4,4c-8.2,9.7-19.2,24.8-19.2,36.6c0,11,0,31.5-8.6,40.1c-20.8,20.8-53,20.8-76.6,20.8v-1.1
				c0-21.8,0-54.8,20.8-75.5c5.7-5.7,19.2-8.6,40.1-8.6C401,36.5,416.1,25.6,425.8,17.3z M425.7,0l0.5,0.5l0.3-0.3L425.7,0z
				 M426.2,0.5c-7.5,7.4-26.9,23.9-37,23.9c-10.9,0-36.8,0.3-48.7,12.2c-24.7,24.7-24.3,61.6-24.3,85.2c0,3.9-3,15.2-3,15.2
				s11.3-3,15.2-3c24.6,0,60.9,0,85.2-24.3c12.1-12.1,12.2-34.5,12.2-48.7c0-10.3,16.9-30.1,24.2-37.3l-0.8-0.2l-11.7-11.7
				L426.2,0.5z"/>
			<path class="st6" d="M294.4,115.6h40.1v40.1L294.4,115.6z"/>
			<path class="st7" d="M328.4,121.7V141L309,121.7H328.4z M340.5,109.6h-60.9l60.9,60.9V109.6z"/>
			<rect x="328.4" y="109.6" class="st6" width="12.2" height="12.2"/>
			
				<rect x="370" y="27.8" transform="matrix(0.7071 -0.7071 0.7071 0.7071 59.1927 287.0702)" class="st7" width="12.2" height="88.6"/>
		</g>
	</g>
</g>
</svg>
